<svg width="67" height="82" viewBox="0 0 67 82" fill="none" xmlns="http://www.w3.org/2000/svg">
<path d="M62.5068 0.810129C66.8909 16.5562 59.9269 28.5874 50.1232 39.7005C40.0429 51.1266 27.3193 57.4803 11.5685 59.4321C17.2022 52.7268 24.6667 47.9533 27.6704 38.2977C25.7347 39.3357 24.5919 39.5882 24.055 40.2983C18.5162 47.6883 11.6454 53.6281 4.18255 58.9648C3.23539 59.6368 2.29254 60.3586 1.52732 61.2241C-0.544764 63.5773 -0.327798 65.77 2.08546 67.719C2.68779 68.2033 3.36953 68.5835 4.0738 68.9174C10.6554 72.1085 17.1994 75.3765 22.0914 81.2502C22.6636 74.0203 18.0941 70.1621 12.5649 66.8649C19.0471 64.6329 25.2446 63.0627 30.9606 60.4284C47.7422 52.6901 59.9938 40.4268 65.6053 22.5329C67.0648 17.8798 66.9784 12.6061 66.9064 7.63482C66.8559 4.06531 65.845 3.3245 62.5029 0.798677L62.5068 0.810129Z" fill="white"/>
</svg>
