<svg width="23" height="22" viewBox="0 0 23 22" fill="none" xmlns="http://www.w3.org/2000/svg">
<path d="M0.000703726 10.9718C0.000703726 8.97772 0.000703726 6.98343 0.000703726 4.98889C0.000703726 2.14748 2.11801 0.00610729 4.92949 0.00229024C6.91522 -0.000763412 8.90045 -0.000763412 10.8852 0.00229024C11.1666 0.000211266 11.44 0.0972606 11.6582 0.276732C11.8764 0.456204 12.0258 0.706865 12.0807 0.985563C12.1858 1.58713 11.8765 2.16198 11.3132 2.3597C11.1154 2.42148 10.9092 2.45112 10.7022 2.4475C8.77316 2.45361 6.84565 2.4475 4.91664 2.4536C3.66743 2.45818 2.71388 3.22694 2.4719 4.41557C2.43831 4.60317 2.42361 4.79372 2.42804 4.98431C2.42804 8.99223 2.42804 13.0001 2.42804 17.0081C2.42804 18.2875 3.19028 19.2563 4.37824 19.4991C4.58296 19.5345 4.79067 19.5493 4.99831 19.5433C8.93045 19.5433 12.8626 19.5433 16.7947 19.5433C18.3555 19.5433 19.3567 18.5257 19.3582 16.9424C19.3582 15.0529 19.3582 13.1635 19.3582 11.2741C19.3582 10.4939 19.8747 9.95565 20.5915 9.96329C21.2244 9.97092 21.7712 10.4717 21.7749 11.1145C21.787 13.2139 21.8316 15.3133 21.7606 17.4119C21.6759 19.9312 19.5412 21.9733 17.0443 21.9855C12.9422 22.0053 8.83945 22.0053 4.73591 21.9855C2.14977 21.9725 0.0301964 19.7983 -0.00231934 17.1852C-0.00231934 17.1562 -0.00231934 17.1279 -0.00231934 17.0989L0.000703726 10.9718Z" fill="white"/>
<path d="M10.9071 11.7733C10.9852 11.6618 11.069 11.5545 11.1582 11.4519C14.3846 8.18912 17.6109 4.92707 20.8373 1.66577C21.1738 1.32605 21.5534 1.14512 22.0359 1.25047C22.2378 1.29328 22.4254 1.38749 22.5811 1.52416C22.7368 1.66083 22.8553 1.83541 22.9253 2.03131C22.9953 2.22722 23.0145 2.43795 22.9811 2.64347C22.9478 2.849 22.8629 3.04249 22.7346 3.20557C22.6681 3.28589 22.5971 3.36236 22.5221 3.4346C18.9731 7.01907 15.4233 10.6035 11.8728 14.188C11.4879 14.5774 11.0576 14.7858 10.5223 14.5987C10.3195 14.5231 10.1355 14.4038 9.9831 14.2491C8.40117 12.6637 6.82327 11.0715 5.2494 9.47242C4.71403 8.9304 4.69512 8.18531 5.19194 7.68527C5.68875 7.18524 6.43358 7.20509 6.96291 7.73871C8.19397 8.97951 9.42277 10.2226 10.6493 11.468C10.7219 11.5436 10.7846 11.6283 10.9071 11.7733Z" fill="white"/>
</svg>
