<svg width="51" height="41" viewBox="0 0 51 41" fill="none" xmlns="http://www.w3.org/2000/svg">
<g clip-path="url(#clip0_35_1363)">
<path d="M18.9997 13.4095V6.98822C18.5247 6.98822 18.0484 6.99358 17.5721 6.98822C16.9178 6.97883 16.6262 6.69061 16.6235 6.03508C16.6181 4.52964 16.6181 3.02419 16.6235 1.52009C16.6262 0.86456 16.9178 0.570978 17.5734 0.569638C24.1495 0.566957 30.7268 0.566957 37.3029 0.569638C37.9558 0.569638 38.2488 0.8659 38.2515 1.52277C38.2568 3.02822 38.2582 4.53366 38.2515 6.03776C38.2488 6.69195 37.9545 6.97883 37.2989 6.98822C36.8346 6.99492 36.3703 6.98822 35.8793 6.98822V13.4108H36.4412C40.6638 13.4108 44.8877 13.4108 49.1103 13.4108C50.0348 13.4108 50.2717 13.6441 50.2717 14.5583C50.2717 21.8335 50.2717 29.1087 50.2717 36.3839C50.2717 37.2405 50.0215 37.4939 49.1759 37.4939C46.322 37.4939 43.4668 37.5019 40.613 37.4845C40.2705 37.4832 40.1126 37.5917 39.9908 37.8987C39.7125 38.5958 39.3754 39.2701 39.1051 39.9699C38.8924 40.5209 38.5338 40.7139 37.9531 40.7126C30.3589 40.7005 22.7633 40.7045 15.1691 40.7045C10.6964 40.7045 6.22224 40.7045 1.74946 40.7045C0.691144 40.7045 0.378063 40.2393 0.796842 39.2822C4.44945 30.9144 8.10608 22.548 11.748 14.1749C11.9875 13.6226 12.3233 13.3907 12.9307 13.4001C14.7664 13.4282 16.6034 13.4108 18.4391 13.4108H19.001L18.9997 13.4095ZM20.6628 7.00833V23.0011H31.0145V7.00967H20.6628V7.00833ZM48.242 15.0141C45.9942 15.0141 43.8281 15.0262 41.6619 15.0034C41.2793 14.9994 41.116 15.1307 40.9702 15.4659C39.3807 19.1377 37.7752 22.8027 36.175 26.4705C36.0974 26.6488 36.0332 26.8338 35.9475 27.055C38.2475 27.055 40.4966 27.0617 42.7443 27.0376C42.8848 27.0362 43.0802 26.811 43.1537 26.6461C44.089 24.5441 45.0068 22.4341 45.9273 20.3254C46.6873 18.5854 47.4432 16.8453 48.242 15.0141ZM7.88264 27.0577C10.1317 27.0577 12.3006 27.0469 14.468 27.0671C14.8507 27.0711 15.0099 26.9357 15.1557 26.5965C16.2823 23.9757 17.3768 21.3389 18.5983 18.7623C19.1843 17.5263 18.9381 16.297 19.0345 15.0155C17.1667 15.0155 15.3685 15.0275 13.5703 15.0047C13.2224 15.0007 13.0819 15.1267 12.9521 15.4243C11.8818 17.9057 10.7954 20.3804 9.7143 22.8564C9.11489 24.2291 8.51683 25.6032 7.88264 27.055V27.0577ZM23.8565 28.6637H23.3547C21.0534 28.6637 18.7535 28.673 16.4522 28.6543C16.091 28.6516 15.9358 28.7763 15.798 29.0967C14.4292 32.2644 13.0418 35.4241 11.661 38.5878C11.5955 38.7366 11.5419 38.8908 11.4603 39.0999H11.9527C14.254 39.0999 16.5539 39.0891 18.8552 39.1106C19.2245 39.1146 19.3703 38.9712 19.5041 38.6629C20.5798 36.1667 21.6702 33.6787 22.7567 31.1879C23.1152 30.3675 23.4738 29.5457 23.8578 28.665L23.8565 28.6637ZM33.471 28.6637C30.8901 28.6637 28.3894 28.6569 25.8901 28.6811C25.7349 28.6824 25.5142 28.909 25.4379 29.0819C24.0357 32.2537 22.651 35.4321 21.2622 38.6106C21.1993 38.7554 21.1458 38.9042 21.0695 39.0985C23.6451 39.0985 26.1444 39.1052 28.6437 39.0824C28.7895 39.0824 28.9969 38.8787 29.0678 38.7205C29.7595 37.1856 30.4285 35.6399 31.1028 34.0969C31.8815 32.3113 32.6588 30.5257 33.471 28.6637ZM14.2459 28.6637C11.9353 28.6637 9.70359 28.6556 7.47055 28.6811C7.31267 28.6824 7.08923 28.9036 7.01297 29.0739C5.60411 32.2604 4.2113 35.4549 2.81715 38.6481C2.75962 38.7795 2.71948 38.9189 2.65526 39.0985C4.95787 39.0985 7.20697 39.1039 9.45607 39.0851C9.57916 39.0851 9.75444 38.9095 9.81598 38.7741C10.3699 37.5435 10.9051 36.3021 11.4456 35.0648C12.3661 32.9588 13.288 30.8528 14.2459 28.6623V28.6637ZM30.6666 39.0999C32.9345 39.0999 35.1167 39.0905 37.2989 39.1093C37.6441 39.1119 37.7872 38.9899 37.9157 38.691C39.2924 35.5085 40.6839 32.3328 42.07 29.1543C42.1342 29.0068 42.1891 28.854 42.264 28.665C39.9601 28.665 37.711 28.6583 35.4619 28.6797C35.3267 28.6797 35.1367 28.8768 35.0698 29.0269C34.3366 30.6718 33.6235 32.3247 32.9037 33.9749C32.1718 35.6533 31.4373 37.3317 30.6653 39.0999H30.6666ZM48.6554 18.2797C48.6286 18.277 48.6006 18.2744 48.5738 18.2717C46.0183 24.1245 43.4642 29.9761 40.898 35.8544H48.6554V18.2784V18.2797ZM18.2464 5.34872H36.6112V2.19573H18.2464V5.34872ZM35.8485 15.0383C35.8485 15.7608 35.8686 16.4445 35.8392 17.1255C35.8258 17.4325 35.7669 17.7609 35.6345 18.0331C34.6591 20.0251 33.6516 22.0024 32.6749 23.9945C32.4474 24.4583 32.1344 24.6634 31.6179 24.6554C30.3174 24.6366 29.0169 24.642 27.7164 24.6581C27.5666 24.6594 27.3351 24.7452 27.2816 24.8578C26.9458 25.5603 26.6488 26.2815 26.3143 27.0577H26.8133C29.1146 27.0577 31.4159 27.0483 33.7172 27.0671C34.0784 27.0697 34.2323 26.9451 34.3714 26.6247C35.9756 22.9221 37.5959 19.2261 39.2108 15.5276C39.2764 15.3788 39.3299 15.2246 39.4021 15.0383H35.8512H35.8485ZM16.7292 26.9799C16.776 27.0215 16.7867 27.0389 16.7974 27.0389C19.2994 27.0456 21.8014 27.0536 24.3033 27.0496C24.4117 27.0496 24.5803 26.9759 24.6204 26.8901C24.9549 26.1689 25.2653 25.4356 25.6065 24.6487C23.7454 24.6487 21.9633 24.6487 20.1798 24.6487C19.2566 24.6487 19.0251 24.4168 19.0238 23.4998C19.0238 22.9877 19.0238 22.4757 19.0238 21.9636C18.989 21.9636 18.9529 21.9622 18.9181 21.9609C18.1862 23.6379 17.4544 25.3163 16.7292 26.9799ZM32.6829 7.01101V20.3629C33.178 19.3736 33.6235 18.517 34.0329 17.6456C34.1547 17.3856 34.2363 17.0786 34.2376 16.793C34.2523 13.7017 34.247 10.6117 34.247 7.52042V7.01101H32.6829Z" fill="#025A8D"/>
</g>
<defs>
<clipPath id="clip0_35_1363">
<rect width="49.6554" height="40.1469" fill="white" transform="translate(0.616089 0.56543)"/>
</clipPath>
</defs>
</svg>
