<svg width="44" height="45" viewBox="0 0 44 45" fill="none" xmlns="http://www.w3.org/2000/svg">
<g clip-path="url(#clip0_35_1377)">
<path d="M27.9759 0C28.1196 0.0618442 28.2621 0.126067 28.4069 0.185532C29.59 0.67434 30.2008 1.9029 29.9462 3.24563C28.6677 9.97793 27.3935 16.7122 26.1236 23.4485C26.0955 23.5959 26.1236 23.8255 26.2123 23.9159C27.5461 25.1944 28.0612 26.8297 28.2352 28.622C28.3111 29.4034 28.3905 30.1836 28.4688 31.0066C29.354 30.8831 30.2553 31.0318 31.057 31.4335C31.1189 31.4644 31.2637 31.3764 31.3443 31.3146C34.5573 28.7373 38.8191 29.9326 40.3129 33.8252C40.3932 33.986 40.5313 34.1091 40.6983 34.1689C42.7715 34.9087 44.1216 36.9115 43.9849 39.0725C43.9256 40.15 43.5158 41.1769 42.82 41.991C42.1243 42.8052 41.1823 43.3605 40.1424 43.5693C39.2662 43.7638 38.3529 43.6863 37.5204 43.3469C37.4204 43.293 37.3059 43.2735 37.1942 43.2913C37.0824 43.3091 36.9793 43.3632 36.9002 43.4456C34.3074 45.6446 30.8689 45.4995 28.3999 43.1161C28.3346 43.0642 28.2589 43.0275 28.1782 43.0086C28.0975 42.9897 28.0137 42.9891 27.9327 43.0067C27.3424 43.2078 26.7171 43.2795 26.0977 43.217C25.4783 43.1545 24.8789 42.9592 24.3389 42.644C24.2688 42.6096 24.1919 42.5918 24.1141 42.5918C24.0363 42.5918 23.9594 42.6096 23.8893 42.644C21.7718 44.1389 19.3845 44.8085 16.8547 44.9322C12.8604 45.1284 8.9933 44.485 5.35982 42.7391C3.31825 41.7579 1.59087 40.3605 0.530371 38.2566C0.361498 37.9119 0.220111 37.554 0.107576 37.1862C-0.242808 36.0873 0.272255 35.275 1.37713 35.0681C2.70976 34.8183 4.04822 34.5816 5.36216 34.2498C8.64175 33.4173 11.7532 32.1864 14.4721 30.0765C16.1446 28.7766 17.5029 27.2222 18.3404 25.217C18.8005 24.1121 19.6193 23.3046 20.6763 22.7884C20.794 22.7415 20.8972 22.663 20.9747 22.5612C21.0522 22.4595 21.1012 22.3382 21.1166 22.2104C21.7628 18.7701 22.4134 15.3302 23.0682 11.8907C23.6837 8.64035 24.2934 5.38877 24.9206 2.13838C25.1133 1.14055 25.7124 0.473347 26.6538 0.127257C26.7461 0.0939565 26.8325 0.046384 26.9224 0.00832606L27.9759 0ZM9.2666 42.6844C10.6565 42.9151 11.9669 43.1102 13.268 43.3564C13.5602 43.4145 13.8612 43.4095 14.1513 43.3414C14.4415 43.2734 14.7143 43.144 14.9522 42.9615C15.9858 42.2158 17.0253 41.4773 18.0239 40.6864C18.4805 40.3296 18.8414 39.8408 19.2607 39.4257C19.5749 39.1129 19.9837 39.1093 20.2815 39.3888C20.5793 39.6683 20.6003 40.0441 20.3586 40.3962C20.2934 40.4947 20.2178 40.5856 20.1332 40.6673C19.2229 41.4999 18.3112 42.3324 17.3978 43.1649C17.3196 43.2363 17.239 43.3052 17.0977 43.4301C19.2969 43.2731 21.2334 42.6285 23.0098 41.4344C22.9666 41.3512 22.9432 41.2989 22.914 41.2489C21.53 38.8798 22.2133 36.2907 24.5655 34.9051C24.7001 34.811 24.7964 34.6702 24.8365 34.5091C25.0874 33.3483 25.775 32.3338 26.7519 31.6833C26.85 31.6167 26.9855 31.493 26.9855 31.4026C26.9364 30.5201 26.8605 29.6388 26.7916 28.7457C23.9196 29.4747 21.2123 29.6603 18.8496 27.5314C18.7889 27.6027 18.7328 27.6503 18.6978 27.711C17.6466 29.2999 16.314 30.5951 14.784 31.6868C11.6247 33.9465 8.06362 35.2072 4.33086 36.0373C3.39651 36.2467 2.45047 36.412 1.39115 36.6201C1.72868 37.2611 2.023 37.851 2.35236 38.4207C2.40064 38.4765 2.46107 38.5199 2.52882 38.5476C2.59656 38.5753 2.66973 38.5864 2.74246 38.5801C5.67167 38.1044 8.55999 37.4705 11.2287 36.073C11.6959 35.8245 12.1105 35.9541 12.3126 36.3632C12.5147 36.7723 12.3406 37.1755 11.8664 37.4086C9.84161 38.4067 7.70261 39.1442 5.49881 39.6041C4.94871 39.723 4.3951 39.8217 3.84383 39.9312L3.80062 40.0501C4.49438 40.4747 5.19514 40.8826 5.88073 41.3274C6.4904 41.7187 7.09773 41.8162 7.77397 41.4951C8.1407 41.3215 8.54948 41.2394 8.93374 41.1014C11.9424 40.0192 14.7735 38.6122 17.1164 36.3442C17.8417 35.6425 18.4467 34.8112 19.1019 34.0334C19.4044 33.6766 19.8026 33.5862 20.1437 33.8264C20.4847 34.0667 20.5454 34.49 20.3013 34.8968C20.2313 35.0098 20.1542 35.118 20.0759 35.2262C18.3719 37.587 16.1551 39.3294 13.6195 40.6543C12.2472 41.3774 10.8153 41.9696 9.2666 42.6844ZM42.518 38.8132C42.5264 38.0333 42.2658 37.2752 41.7815 36.6709C41.2972 36.0667 40.6199 35.6548 39.8679 35.5069C39.3937 35.4141 39.1286 35.1906 39.0095 34.7029C38.6182 33.0974 37.6266 32.0258 36.0639 31.6012C34.5012 31.1766 33.0939 31.6012 31.9493 32.8036C31.4891 33.2877 31.2368 33.3257 30.6937 32.9689C28.8157 31.738 26.4354 32.9095 26.2474 35.1775C26.2053 35.6829 25.9904 35.9434 25.5408 36.117C25.1746 36.2528 24.8396 36.4637 24.5568 36.7367C24.2739 37.0097 24.0491 37.3389 23.8962 37.7039C23.7434 38.069 23.6659 38.4621 23.6684 38.859C23.6708 39.2558 23.7533 39.6479 23.9107 40.011C24.0681 40.374 24.297 40.7003 24.5833 40.9695C24.8696 41.2388 25.2071 41.4453 25.575 41.5763C25.9429 41.7073 26.3332 41.76 26.7219 41.7311C27.1106 41.7022 27.4893 41.5923 27.8346 41.4083C28.4875 41.0753 28.6954 41.1181 29.1404 41.6794C29.5629 42.2181 30.0937 42.6584 30.6972 42.9707C31.3008 43.2831 31.963 43.4603 32.6393 43.4903C33.3157 43.5204 33.9905 43.4027 34.6185 43.1451C35.2464 42.8876 35.813 42.4961 36.28 41.997C36.8359 41.4107 36.9504 41.3928 37.6815 41.7793C39.8796 42.9461 42.5145 41.3333 42.518 38.8132ZM24.7162 22.8051C24.7442 22.6861 24.7863 22.5315 24.8155 22.3745C25.8277 17.0543 26.8379 11.7341 27.8463 6.41396C28.0729 5.2187 28.3135 4.02582 28.512 2.82581C28.6218 2.17406 28.2445 1.63649 27.6676 1.51756C27.0544 1.39863 26.5405 1.75542 26.37 2.41906C26.3513 2.49161 26.3338 2.56297 26.3198 2.63552C25.2149 8.45125 24.1104 14.267 23.0063 20.0827C22.8638 20.8332 22.7295 21.5848 22.5999 22.2913L24.7162 22.8051ZM26.5078 27.2531C26.0803 25.7712 25.2429 24.7555 23.9208 24.1609C22.385 23.4806 20.8164 23.9563 19.9194 25.3954C19.4277 26.1863 19.4768 26.0447 20.0806 26.6144C20.2665 26.7808 20.4702 26.9252 20.6879 27.045C22.573 28.1391 24.5013 27.7597 26.5078 27.2531Z" fill="#025A8D"/>
<path d="M8.82854 6.06538L11.7764 6.597C14.8909 7.15677 18.0031 7.71694 21.113 8.2775C21.7086 8.38573 21.9995 8.72112 21.9177 9.17424C21.8359 9.62737 21.4505 9.84739 20.8665 9.74392C16.8216 9.02003 12.7766 8.29574 8.73159 7.57105C8.20602 7.47709 7.94207 7.15955 7.99813 6.70047C8.04368 6.31632 8.35552 6.05706 8.82854 6.06538Z" fill="#025A8D"/>
<path d="M43.2432 25.8354C43.2392 26.3502 43.086 26.8523 42.8026 27.2786C42.5192 27.7049 42.1183 28.0363 41.6504 28.2313C41.1825 28.4262 40.6685 28.4759 40.1729 28.3742C39.6773 28.2724 39.2224 28.0237 38.8652 27.6594C38.5081 27.295 38.2647 26.8313 38.1656 26.3265C38.0666 25.8217 38.1164 25.2983 38.3086 24.8222C38.5009 24.3461 38.8272 23.9385 39.2463 23.6507C39.6655 23.3629 40.1588 23.2077 40.6644 23.2046C41.004 23.2026 41.3406 23.2693 41.6547 23.4008C41.9688 23.5323 42.2541 23.7261 42.494 23.9709C42.7339 24.2156 42.9237 24.5065 43.0523 24.8266C43.1809 25.1467 43.2458 25.4896 43.2432 25.8354ZM40.683 26.9426C40.8992 26.9421 41.1103 26.8767 41.29 26.7544C41.4696 26.6321 41.6098 26.4585 41.6929 26.2554C41.776 26.0522 41.7984 25.8286 41.7571 25.6126C41.7158 25.3966 41.6128 25.1978 41.461 25.0412C41.3091 24.8846 41.1152 24.7772 40.9036 24.7325C40.6921 24.6877 40.4722 24.7076 40.2717 24.7896C40.0712 24.8717 39.8989 25.0122 39.7766 25.1936C39.6542 25.375 39.5872 25.5892 39.584 25.8092C39.5815 25.9576 39.6081 26.1049 39.6623 26.2426C39.7165 26.3804 39.7971 26.5057 39.8995 26.6113C40.0019 26.7168 40.1239 26.8005 40.2584 26.8574C40.393 26.9143 40.5374 26.9433 40.683 26.9426Z" fill="#025A8D"/>
<path d="M10.1892 13.9981C11.0068 14.1432 11.9014 14.299 12.7902 14.4596C15.0841 14.8711 17.3775 15.2834 19.6706 15.6964C20.0619 15.7666 20.3714 15.92 20.4414 16.3577C20.5279 16.9048 20.091 17.2973 19.5001 17.1902C18.1651 16.9524 16.8336 16.7145 15.4999 16.4707C13.7222 16.1535 11.9446 15.8364 10.167 15.5192C9.541 15.4074 9.22098 14.9852 9.41019 14.4833C9.53165 14.1527 9.77576 13.9945 10.1892 13.9981Z" fill="#025A8D"/>
<path d="M12.5881 10.6193C13.5797 10.7954 14.5993 10.9761 15.6177 11.1593C17.2241 11.4487 18.8304 11.7405 20.4367 12.0346C20.9891 12.1357 21.2542 12.4723 21.1655 12.9397C21.0791 13.3857 20.717 13.595 20.1914 13.501C17.6219 13.042 15.0525 12.5825 12.483 12.1226C11.9854 12.0322 11.7203 11.7135 11.7647 11.2782C11.8102 10.8762 12.1408 10.6003 12.5881 10.6193Z" fill="#025A8D"/>
<path d="M35.8945 23.2011C35.46 23.1968 35.0365 23.0615 34.6774 22.8123C34.3184 22.563 34.04 22.211 33.8773 21.8007C33.7147 21.3904 33.6751 20.9402 33.7636 20.507C33.8521 20.0738 34.0647 19.677 34.3746 19.3668C34.6844 19.0566 35.0776 18.8469 35.5045 18.7641C35.9314 18.6813 36.3727 18.7293 36.7729 18.9019C37.173 19.0744 37.5139 19.3639 37.7525 19.7337C37.9912 20.1035 38.1168 20.537 38.1136 20.9794C38.1068 21.5731 37.8697 22.1399 37.4539 22.5562C37.0382 22.9724 36.4776 23.2043 35.8945 23.2011ZM35.8817 21.6978C36.0244 21.6992 36.1643 21.6575 36.2837 21.5779C36.4031 21.4984 36.4967 21.3846 36.5527 21.2509C36.6086 21.1172 36.6244 20.9697 36.598 20.8269C36.5716 20.6841 36.5042 20.5524 36.4043 20.4486C36.3045 20.3448 36.1767 20.2734 36.037 20.2435C35.8974 20.2137 35.7522 20.2266 35.6197 20.2807C35.4873 20.3349 35.3736 20.4278 35.293 20.5477C35.2124 20.6676 35.1685 20.8092 35.1669 20.9545C35.1665 21.149 35.2413 21.336 35.375 21.475C35.5087 21.614 35.6906 21.694 35.8817 21.6978Z" fill="#025A8D"/>
<path d="M10.5816 26.5884C10.6248 26.5991 10.7358 26.5884 10.7895 26.6443C11.2999 27.1438 11.829 27.629 12.2891 28.1737C12.4947 28.4116 12.3837 28.7993 12.1209 28.9599C11.9025 29.0931 11.4856 29.1977 11.3384 29.0859C10.8071 28.6728 10.3287 28.1933 9.91469 27.6588C9.58766 27.2354 9.99995 26.5931 10.5816 26.5884Z" fill="#025A8D"/>
<path d="M9.09826 25.1456C8.98147 25.3085 8.86467 25.6023 8.67313 25.6891C8.45589 25.7843 8.07981 25.7902 7.91163 25.6558C7.44916 25.273 7.02366 24.8461 6.64091 24.3809C6.40732 24.1073 6.45053 23.7636 6.69346 23.4841C6.9364 23.2046 7.28911 23.094 7.5554 23.3212C8.06463 23.7553 8.50962 24.2726 8.97096 24.7603C9.03403 24.8221 9.03636 24.947 9.09826 25.1456Z" fill="#025A8D"/>
<path d="M12.4713 23.8873C12.3218 24.1561 12.2471 24.3702 12.1081 24.526C11.7869 24.8828 11.4424 25.2312 11.0943 25.5678C10.7463 25.9044 10.3083 25.9246 10.0081 25.6071C9.70796 25.2895 9.72899 24.8637 10.0747 24.4998C10.4204 24.1359 10.7451 23.747 11.1375 23.4485C11.2519 23.3714 11.3805 23.3191 11.5155 23.2945C11.6504 23.27 11.7889 23.2738 11.9224 23.3057C12.1338 23.3723 12.2774 23.6673 12.4713 23.8873Z" fill="#025A8D"/>
<path d="M7.25292 17.2212C7.49935 17.2212 7.74696 17.2058 7.99223 17.2212C8.17507 17.2307 8.34796 17.3089 8.47741 17.4408C8.60687 17.5726 8.68369 17.7486 8.693 17.9348C8.70315 18.1223 8.64152 18.3065 8.52107 18.4487C8.40062 18.5908 8.23073 18.6799 8.04712 18.6972C7.49683 18.734 6.94476 18.734 6.39447 18.6972C6.2107 18.6787 6.04124 18.588 5.92215 18.4443C5.80305 18.3006 5.74372 18.1152 5.75678 17.9277C5.76691 17.7408 5.84546 17.5646 5.97692 17.4338C6.10838 17.3031 6.2832 17.2272 6.46689 17.2212C6.72968 17.207 6.9913 17.2212 7.25292 17.2212Z" fill="#025A8D"/>
<path d="M7.12443 29.2452C6.96092 29.1132 6.67477 28.9931 6.59886 28.7897C6.5136 28.5661 6.52528 28.195 6.66193 28.0155C7.03407 27.5584 7.44439 27.135 7.88827 26.75C8.17676 26.4896 8.51897 26.5264 8.80278 26.7857C9.08659 27.045 9.18235 27.4113 8.93709 27.705C8.51168 28.1916 8.05975 28.6534 7.58344 29.0882C7.49818 29.1703 7.34167 29.1739 7.12443 29.2452Z" fill="#025A8D"/>
<path d="M2.82298 17.2212C3.07176 17.2212 3.32053 17.2069 3.56696 17.2212C3.75189 17.2238 3.92875 17.2987 4.06093 17.4305C4.19311 17.5622 4.2705 17.7406 4.27708 17.9288C4.28421 18.026 4.27202 18.1236 4.24123 18.2159C4.21045 18.3081 4.1617 18.3931 4.09791 18.4657C4.03412 18.5383 3.9566 18.5971 3.86998 18.6385C3.78337 18.6799 3.68944 18.7031 3.59382 18.7066C3.06948 18.7382 2.54378 18.7382 2.01944 18.7066C1.83439 18.695 1.66102 18.6106 1.53593 18.4712C1.41085 18.3319 1.34384 18.1485 1.34904 17.9598C1.35179 17.7641 1.42979 17.5774 1.56629 17.4398C1.70279 17.3021 1.88689 17.2245 2.079 17.2236C2.32661 17.2081 2.57538 17.22 2.82298 17.2212Z" fill="#025A8D"/>
<path d="M5.74391 20.2349C5.74391 20.487 5.75675 20.7403 5.74391 20.9913C5.74206 21.1793 5.66741 21.359 5.5362 21.4912C5.40498 21.6235 5.22779 21.6977 5.04314 21.6977C4.95184 21.7055 4.85993 21.6944 4.77297 21.665C4.686 21.6356 4.60578 21.5886 4.53713 21.5269C4.46849 21.4651 4.41283 21.3898 4.37354 21.3055C4.33425 21.2212 4.31212 21.1297 4.3085 21.0365C4.28047 20.4882 4.28047 19.9388 4.3085 19.3905C4.31199 19.2972 4.33396 19.2056 4.3731 19.1212C4.41224 19.0368 4.46774 18.9614 4.53626 18.8994C4.60477 18.8374 4.68489 18.7901 4.7718 18.7605C4.85871 18.7308 4.95061 18.7194 5.04197 18.7268C5.22783 18.7268 5.40607 18.802 5.53749 18.9358C5.6689 19.0696 5.74274 19.2511 5.74274 19.4404C5.75792 19.6997 5.74391 19.9673 5.74391 20.2349Z" fill="#025A8D"/>
<path d="M5.74159 15.7214C5.74159 15.9878 5.75794 16.2566 5.74159 16.5218C5.73609 16.7099 5.65791 16.888 5.52405 17.0177C5.39019 17.1473 5.21149 17.2179 5.02681 17.214C4.84928 17.2228 4.67543 17.1604 4.54264 17.0401C4.40985 16.9197 4.32872 16.7512 4.3167 16.5706C4.2875 16.0076 4.2875 15.4435 4.3167 14.8806C4.32725 14.7 4.40741 14.5309 4.53974 14.4102C4.67207 14.2895 4.84586 14.2269 5.0233 14.236C5.20742 14.2308 5.38612 14.2997 5.52076 14.4277C5.6554 14.5556 5.73516 14.7324 5.74276 14.9198C5.75795 15.1862 5.74159 15.4538 5.74159 15.7214Z" fill="#025A8D"/>
<path d="M40.683 26.9426C40.5361 26.9475 40.3897 26.9223 40.2525 26.8684C40.1153 26.8145 39.9902 26.7331 39.8845 26.6289C39.7789 26.5248 39.6949 26.4001 39.6375 26.2622C39.5801 26.1244 39.5505 25.9762 39.5505 25.8265C39.5505 25.6768 39.5801 25.5286 39.6375 25.3907C39.6949 25.2529 39.7789 25.1282 39.8845 25.024C39.9902 24.9199 40.1153 24.8385 40.2525 24.7846C40.3897 24.7307 40.5361 24.7054 40.683 24.7103C40.83 24.7054 40.9764 24.7307 41.1136 24.7846C41.2508 24.8385 41.3759 24.9199 41.4815 25.024C41.5872 25.1282 41.6712 25.2529 41.7286 25.3907C41.7859 25.5286 41.8155 25.6768 41.8155 25.8265C41.8155 25.9762 41.7859 26.1244 41.7286 26.2622C41.6712 26.4001 41.5872 26.5248 41.4815 26.6289C41.3759 26.7331 41.2508 26.8145 41.1136 26.8684C40.9764 26.9223 40.83 26.9475 40.683 26.9426Z" fill="white"/>
<path d="M35.8816 21.6977C35.7391 21.691 35.6018 21.6415 35.487 21.5554C35.3722 21.4693 35.2849 21.3505 35.2363 21.214C35.1877 21.0775 35.1799 20.9294 35.2139 20.7884C35.2479 20.6474 35.3221 20.5197 35.4272 20.4216C35.5324 20.3235 35.6637 20.2593 35.8046 20.2371C35.9455 20.215 36.0898 20.2358 36.2191 20.297C36.3484 20.3582 36.457 20.457 36.5312 20.581C36.6054 20.705 36.6419 20.8486 36.6361 20.9937C36.6273 21.1887 36.543 21.3723 36.4016 21.5043C36.2602 21.6362 36.0732 21.7058 35.8816 21.6977Z" fill="white"/>
<path d="M35.029 32.9368C35.6173 32.9508 36.185 33.16 36.6459 33.5327C37.1067 33.9054 37.4355 34.4211 37.5821 35.0014C37.6989 35.4771 37.5039 35.8767 37.0962 36.004C36.6886 36.1313 36.3312 35.8993 36.1677 35.4236C35.7975 34.3532 34.9087 34.1237 34.0549 34.8884C33.6964 35.2107 33.3028 35.2226 33.0038 34.9217C32.7048 34.6208 32.7083 34.1915 33.0131 33.843C33.5457 33.2317 34.2371 32.9641 35.029 32.9368Z" fill="#025A8D"/>
</g>
<defs>
<clipPath id="clip0_35_1377">
<rect width="44" height="45" fill="white"/>
</clipPath>
</defs>
</svg>
