<svg width="46" height="49" viewBox="0 0 46 49" fill="none" xmlns="http://www.w3.org/2000/svg">
<g clip-path="url(#clip0_35_1395)">
<path d="M21.7777 49.0001C20.9181 48.847 20.0434 48.7449 19.2001 48.5331C13.3937 47.0401 9.33404 43.4506 7.31238 37.7352C4.0998 28.6562 8.8509 18.9442 17.8461 15.8907C27.0697 12.7593 37.1441 18.5831 39.2774 28.2798C39.7695 30.49 39.8214 32.778 39.4298 35.0089C39.0383 37.2398 38.2113 39.3684 36.9977 41.2691C35.784 43.1698 34.2084 44.804 32.3636 46.0755C30.5188 47.347 28.4423 48.2299 26.2565 48.6722C25.5851 48.81 24.9025 48.8917 24.2248 49.0001H21.7777ZM22.9925 47.6335C31.4318 47.6475 38.3225 40.6561 38.34 32.0658C38.3457 28.9801 37.4512 25.9621 35.7696 23.3935C34.0881 20.8249 31.695 18.8212 28.8932 17.6359C26.0914 16.4507 23.0069 16.1371 20.0298 16.7348C17.0527 17.3326 14.3169 18.8149 12.1685 20.9941C10.0201 23.1733 8.55563 25.9516 7.96045 28.9773C7.36526 32.003 7.66608 35.1403 8.82483 37.9922C9.98359 40.844 11.9482 43.2823 14.4701 44.9985C16.992 46.7147 19.9579 47.6317 22.9925 47.6335Z" fill="#025A8D"/>
<path d="M23.2836 3.09949e-05C23.4455 0.297349 23.6526 0.578078 23.7618 0.89326C24.1018 1.88347 24.4156 2.88516 24.7167 3.88941C24.8083 4.19566 24.9389 4.31561 25.2727 4.30795C26.3858 4.28115 27.4989 4.30029 28.612 4.29008C28.9885 4.29008 29.3047 4.36282 29.4327 4.76988C29.5607 5.17693 29.3285 5.42831 29.0311 5.64652C28.1527 6.28454 27.2918 6.95573 26.3958 7.56823C26.0507 7.8043 26.0281 8.01613 26.1549 8.38235C26.5088 9.40318 26.8175 10.4381 27.1588 11.4653C27.2843 11.8391 27.3332 12.1964 26.9681 12.4516C26.6305 12.6877 26.3205 12.5525 26.0206 12.324C25.1258 11.6516 24.216 10.9995 23.3301 10.3168C23.0791 10.1267 22.921 10.1356 22.68 10.3168C21.8166 10.9778 20.9332 11.612 20.0648 12.2666C19.746 12.5065 19.4235 12.7132 19.042 12.444C18.6317 12.1543 18.7534 11.7549 18.8801 11.3645C19.2566 10.216 19.6231 9.06758 20.0096 7.87321L17.2488 5.83154C17.1095 5.72818 16.9187 5.65545 16.8422 5.51636C16.7167 5.28667 16.5761 5.00594 16.5987 4.76477C16.6313 4.433 16.9225 4.28626 17.2613 4.28753C18.4209 4.28753 19.5816 4.27477 20.7412 4.30157C21.0737 4.30795 21.2055 4.19055 21.2971 3.8843C21.5995 2.88006 21.912 1.87837 22.2521 0.886882C22.3613 0.571699 22.5671 0.289694 22.729 -0.00634766L23.2836 3.09949e-05ZM25.2915 10.091L24.6854 8.1769C24.4344 7.40107 24.467 7.3143 25.1284 6.82558C25.6165 6.46701 26.1022 6.10589 26.5903 5.74605C25.9329 5.65675 25.2689 5.62771 24.6063 5.65928C24.0843 5.68352 23.7906 5.47425 23.6488 4.96C23.4731 4.32836 23.251 3.70948 23.049 3.0855C22.7641 3.69376 22.5307 4.32555 22.3512 4.97404C22.2119 5.46149 21.9371 5.67969 21.4301 5.65928C20.7688 5.63248 20.1049 5.65289 19.4424 5.65289C19.9306 6.11586 20.4552 6.53751 21.011 6.91362C21.4439 7.21094 21.5493 7.56568 21.3699 8.06206C21.1415 8.70008 20.9533 9.34448 20.7136 10.091C21.3536 9.61883 21.9083 9.23219 22.4378 8.81493C22.8381 8.49592 23.1908 8.51506 23.5836 8.82131C24.1131 9.23219 24.6603 9.62266 25.2915 10.091Z" fill="#025A8D"/>
<path d="M9.46332 13.1675C9.85736 14.3938 10.2502 15.5843 10.6128 16.7851C10.6887 17.0222 10.6887 17.2778 10.6128 17.515C10.4535 17.9284 9.97532 17.9782 9.53861 17.6592C8.61123 16.979 7.68386 16.2976 6.76903 15.5996C6.54691 15.4299 6.39883 15.4133 6.16542 15.5932C5.26565 16.2849 4.34454 16.9471 3.43599 17.6273C3.13732 17.8518 2.83238 17.9935 2.49355 17.7408C2.15472 17.4882 2.1748 17.1615 2.29527 16.7966C2.65167 15.7094 2.98547 14.6145 3.35316 13.5324C3.44728 13.2555 3.40335 13.1075 3.16994 12.9404C2.24633 12.2806 1.34154 11.5954 0.421691 10.9319C0.111728 10.7073 -0.089057 10.4431 0.037689 10.0476C0.164435 9.652 0.490709 9.56778 0.865927 9.57161C1.97778 9.57926 3.09214 9.56012 4.20399 9.58692C4.53905 9.59585 4.65827 9.4708 4.74988 9.1671C5.07364 8.08629 5.43381 7.01697 5.7651 5.93999C5.8793 5.56739 6.0713 5.29304 6.47664 5.30197C6.85311 5.30197 7.04762 5.5776 7.15679 5.92468C7.50441 7.03101 7.86708 8.13351 8.20214 9.24239C8.27994 9.4976 8.39539 9.58819 8.66143 9.58564C9.79085 9.56905 10.9203 9.58564 12.0497 9.57161C12.4262 9.57161 12.7499 9.64434 12.8892 10.0374C13.0386 10.4623 12.7913 10.7226 12.4776 10.9523C11.4837 11.6745 10.4974 12.407 9.46332 13.1675ZM8.75179 15.384L8.12433 13.3985C7.91476 12.7349 7.96245 12.5831 8.50081 12.1837L10.0418 11.0454C9.43223 10.9621 8.81692 10.9301 8.20214 10.9497C7.43539 10.9587 7.3237 10.8795 7.08652 10.1522C6.89326 9.55119 6.69875 8.95018 6.45906 8.219C6.2244 8.95273 6.02989 9.56778 5.83161 10.1828C5.61326 10.8604 5.47647 10.9561 4.78251 10.9485C4.16384 10.9485 3.54517 10.9485 2.9265 10.9485C3.38632 11.3911 3.87885 11.7972 4.39976 12.1632C4.972 12.5869 5.01968 12.7349 4.80258 13.4112C4.60556 14.0237 4.40854 14.6349 4.17513 15.3814C4.80258 14.9195 5.30455 14.5482 5.80651 14.1743C6.39255 13.7404 6.53687 13.7392 7.13672 14.1832L8.75179 15.384Z" fill="#025A8D"/>
<path d="M36.5405 13.166C35.5165 12.4119 34.5415 11.6896 33.5614 10.9763C33.2527 10.7518 32.9716 10.5093 33.0996 10.0831C33.2276 9.65691 33.6015 9.57269 34.0031 9.57269C35.1162 9.58417 36.2293 9.57269 37.3424 9.58673C37.6097 9.58673 37.7189 9.50123 37.8017 9.24219C38.123 8.17798 38.4781 7.12269 38.8056 6.06102C38.9311 5.67821 39.0667 5.31071 39.526 5.2954C39.9853 5.28009 40.1459 5.6361 40.2663 6.02785C40.5876 7.07548 40.939 8.11418 41.2527 9.16436C41.3443 9.47061 41.4673 9.59056 41.7999 9.5829C42.913 9.55738 44.0261 9.57524 45.1392 9.56759C45.5156 9.56759 45.8394 9.64287 45.9636 10.0461C46.0879 10.4493 45.8858 10.7071 45.5771 10.9304C44.6824 11.5774 43.8102 12.2537 42.9042 12.8815C42.593 13.0971 42.5603 13.2911 42.6758 13.6254C43.0322 14.6615 43.3522 15.7105 43.6973 16.7517C43.8228 17.1256 43.8667 17.4778 43.5078 17.7394C43.1489 18.0009 42.8326 17.8236 42.5264 17.5939C41.6568 16.9406 40.7696 16.3102 39.9137 15.639C39.6213 15.4106 39.4369 15.4323 39.1532 15.653C38.3099 16.314 37.4353 16.9291 36.5782 17.5773C36.2607 17.8146 35.9394 18.0239 35.5604 17.7253C35.1815 17.4267 35.2894 17.0592 35.4124 16.6802C35.7901 15.5229 36.159 14.3578 36.5405 13.166ZM39.5887 8.37066L39.4958 8.35535C39.3118 8.92872 39.1277 9.50251 38.9437 10.0767C38.6764 10.9087 38.6036 10.9572 37.7377 10.9457C37.1567 10.9381 36.5744 10.9457 35.9934 10.9457C36.4361 11.3723 36.9101 11.7639 37.4114 12.1171C38.074 12.6071 38.1092 12.7143 37.8494 13.5208C37.6637 14.0988 37.4729 14.6769 37.247 15.3902C37.8745 14.9244 38.3765 14.5493 38.8897 14.1766C39.482 13.7415 39.6113 13.7428 40.2187 14.1907C40.7206 14.5582 41.2151 14.9295 41.7133 15.2983C41.5803 14.6518 41.4054 14.015 41.19 13.3919C40.9829 12.7437 41.0344 12.5867 41.5815 12.1822C42.0927 11.8045 42.6038 11.4285 43.115 11.0542C42.4372 10.9671 41.7536 10.9342 41.0708 10.9559C40.6165 10.9623 40.3404 10.7747 40.2086 10.3179C40.0216 9.66073 39.797 9.01889 39.5887 8.37066Z" fill="#025A8D"/>
<path d="M22.9924 47.6333C19.9586 47.6311 16.9935 46.7139 14.4724 44.9977C11.9513 43.2816 9.98739 40.8437 8.82913 37.9924C7.67088 35.1412 7.37032 32.0046 7.96548 28.9796C8.56065 25.9546 10.0248 23.177 12.1727 20.9983C14.3206 18.8196 17.0557 17.3377 20.0321 16.7399C23.0085 16.1421 26.0923 16.4555 28.8935 17.6402C31.6948 18.825 34.0875 20.8279 35.769 23.3957C37.4505 25.9635 38.3452 28.9807 38.34 32.0656C38.3224 40.656 31.4317 47.6474 22.9924 47.6333ZM36.8642 32.0286C36.8567 24.2218 30.6336 17.9003 22.9774 17.922C20.2345 17.925 17.5541 18.7548 15.2749 20.3065C12.9957 21.8582 11.22 24.0622 10.1724 26.6398C9.12474 29.2174 8.8521 32.053 9.38894 34.7881C9.92578 37.5232 11.248 40.0351 13.1885 42.0063C15.129 43.9775 17.6006 45.3195 20.2909 45.8627C22.9813 46.4058 25.7697 46.1258 28.3035 45.0579C30.8374 43.9901 33.0031 42.1823 34.5268 39.8632C36.0506 37.5441 36.864 34.8177 36.8642 32.0286Z" fill="white"/>
<path d="M36.8643 32.0289C36.8621 34.8154 36.0477 37.5387 34.5241 39.8548C33.0005 42.1709 30.8361 43.9759 28.3041 45.0418C25.7722 46.1076 22.9864 46.3866 20.2986 45.8433C17.6108 45.3001 15.1417 43.959 13.2031 41.9895C11.2645 40.0201 9.94345 37.5106 9.40677 34.7781C8.87009 32.0455 9.14188 29.2126 10.1878 26.637C11.2337 24.0615 13.0069 21.8589 15.2833 20.3076C17.5596 18.7563 20.2371 17.9257 22.9775 17.921C30.6337 17.8993 36.8568 24.2208 36.8643 32.0289ZM23.0214 19.308C19.722 19.336 16.5669 20.687 14.2418 23.0674C11.9166 25.4478 10.6094 28.6651 10.6043 32.0201C10.5992 35.3751 11.8965 38.5966 14.2144 40.9843C16.5322 43.3721 19.6832 44.733 22.9825 44.7714C29.8669 44.7906 35.5077 39.079 35.5203 32.0748C35.5276 30.401 35.2097 28.7422 34.5848 27.1937C33.9599 25.6452 33.0404 24.2374 31.8791 23.0512C30.7178 21.8649 29.3374 20.9236 27.8174 20.2813C26.2973 19.6389 24.6675 19.3082 23.0214 19.308Z" fill="#025A8D"/>
<path d="M25.7809 27.8381C26.9543 27.8381 28.095 27.8151 29.2344 27.8496C29.6705 27.8532 30.1021 27.9398 30.5069 28.1048C31.018 28.343 31.4348 28.7501 31.6896 29.2598C31.9443 29.7695 32.0219 30.3518 31.9099 30.9121C31.4916 33.0677 31.0578 35.2204 30.6086 37.3701C30.3312 38.7049 29.3311 39.4883 27.918 39.4909C25.1572 39.4986 22.3964 39.4986 19.6356 39.4909C19.2905 39.4909 19.0772 39.5726 18.8827 39.8878C18.6756 40.2309 18.364 40.496 17.9953 40.6427C17.6266 40.7895 17.2208 40.8098 16.8397 40.7006C15.9826 40.4696 15.4041 39.7359 15.3012 38.7393C15.2848 38.5824 15.2886 38.4216 15.2874 38.2621C15.2874 35.2162 15.2874 32.1703 15.2949 29.1243C15.2935 28.7434 15.3524 28.3646 15.4693 28.0027C15.575 27.6484 15.7827 27.3345 16.0658 27.1015C16.3488 26.8686 16.694 26.7273 17.0568 26.696C17.8562 26.5927 18.5376 26.8466 18.9592 27.5561C19.1914 27.9466 19.5089 27.9032 19.805 27.8394C19.9782 27.8024 20.1664 27.5842 20.2455 27.3928C20.7951 26.1078 21.3097 24.8088 21.8493 23.5187C22.5458 21.8598 24.3014 21.5357 25.5475 22.8258C26.3582 23.6654 26.5891 24.6569 26.3393 25.7747C26.185 26.4498 25.9779 27.1158 25.7809 27.8381ZM19.3395 38.0617C19.3945 38.0807 19.4513 38.0944 19.5089 38.1026C22.3776 38.1026 25.2476 38.1102 28.1163 38.1026C28.7626 38.1026 29.1616 37.7198 29.3022 37.0307C29.7163 35.0043 30.079 32.9652 30.5496 30.9529C30.7729 29.9959 30.2158 29.1358 29.0863 29.1856C27.7059 29.2468 26.3255 29.2047 24.9451 29.1996C24.2449 29.1996 23.9939 28.8168 24.2123 28.1367C24.4532 27.38 24.7142 26.6271 24.92 25.8615C25.1095 25.1661 25.1233 24.4744 24.6377 23.8632C24.0918 23.1767 23.4154 23.2622 23.0766 24.0738C22.5934 25.2311 22.0614 26.3706 21.661 27.5599C21.2846 28.6828 20.6571 29.3311 19.4424 29.2519C19.416 29.2519 19.3871 29.2775 19.3369 29.303L19.3395 38.0617ZM17.9816 33.6377H17.9653C17.9653 32.8414 17.9653 32.0443 17.9653 31.2464C17.9653 30.4336 17.9578 29.6207 17.9653 28.8079C17.9653 28.3842 17.8022 28.0933 17.3642 28.0423C16.9878 27.9963 16.7456 28.24 16.6678 28.7186C16.6426 28.8917 16.6313 29.0667 16.6339 29.2417C16.6339 32.2073 16.6339 35.1724 16.6339 38.137C16.6311 38.296 16.6391 38.4551 16.6577 38.613C16.728 39.1234 16.9915 39.4156 17.3316 39.3888C17.6717 39.362 17.9591 38.983 17.9879 38.5173C17.9942 38.4063 17.9879 38.294 17.9879 38.183L17.9816 33.6377Z" fill="#025A8D"/>
<path d="M17.9816 33.6379V38.1818C17.9816 38.2929 17.9816 38.4051 17.9816 38.5162C17.9578 38.9819 17.6704 39.3609 17.3253 39.3877C16.9802 39.4145 16.7217 39.1172 16.6514 38.6119C16.6328 38.454 16.6249 38.2949 16.6276 38.1359C16.6276 35.1704 16.6276 32.2053 16.6276 29.2406C16.625 29.0656 16.6363 28.8906 16.6615 28.7174C16.7393 28.2389 16.9852 27.9952 17.358 28.0411C17.7959 28.0935 17.9603 28.3844 17.9591 28.8068C17.9591 29.6196 17.9591 30.4324 17.9591 31.2453C17.9591 32.0581 17.9591 32.8403 17.9591 33.6366L17.9816 33.6379Z" fill="white"/>
</g>
<defs>
<clipPath id="clip0_35_1395">
<rect width="46" height="49" fill="white"/>
</clipPath>
</defs>
</svg>
