<svg width="48" height="42" viewBox="0 0 48 42" fill="none" xmlns="http://www.w3.org/2000/svg">
<g clip-path="url(#clip0_35_1404)">
<path d="M0 3.59978C0.23546 3.43615 0.47718 3.28291 0.70262 3.105C0.791127 3.0282 0.857446 2.92753 0.894248 2.81411C1.52047 0.960981 2.81425 0 4.71421 0H43.282C45.1895 0 46.4745 0.953188 47.1083 2.80892C47.1741 2.95193 47.2901 3.06344 47.4326 3.12059C47.7933 3.27123 47.9975 3.52056 47.9975 3.92443C47.9975 5.70614 47.9975 7.48785 47.9975 9.26956C47.9975 9.74485 47.747 10.015 47.3036 10.102C46.6486 10.2318 46.5008 10.4253 46.5008 11.1655C46.5008 18.2439 46.5008 25.3222 46.5008 32.4006C46.5008 34.407 45.4475 35.9679 43.7367 36.412C43.1994 36.5523 42.6283 36.551 42.0008 36.6224C42.0008 37.0276 41.9933 37.4743 42.0008 37.921C42.0121 38.4184 41.8467 38.7638 41.3458 38.8963C41.2888 38.9244 41.2381 38.9642 41.1965 39.0133C41.1549 39.0624 41.1235 39.1198 41.104 39.182C40.4903 40.9715 39.1627 42.0078 37.4719 42.0013C35.8124 42.0013 34.4874 40.9468 33.8824 39.1859C33.8138 39.0446 33.6968 38.9348 33.5543 38.8781C33.1961 38.7262 32.9969 38.4768 32.9957 38.0704C32.9957 37.5873 32.9957 37.1042 32.9957 36.5899H14.9993C14.9993 37.0834 14.9993 37.5652 14.9993 38.047C14.9993 38.4262 14.8553 38.7496 14.4983 38.8262C14.2078 38.8911 14.1389 39.0586 14.065 39.2963C13.824 40.0807 13.3486 40.7652 12.7076 41.251C12.0666 41.7368 11.2932 41.9986 10.4993 41.9986C9.70529 41.9986 8.9319 41.7368 8.29091 41.251C7.64992 40.7652 7.17456 40.0807 6.93354 39.2963C6.86591 39.082 6.82332 38.9067 6.54152 38.8483C6.16579 38.7677 5.99922 38.4444 6.00047 38.0431C6.00047 37.5743 6.00047 37.1055 6.00047 36.5588H5.34919C3.1261 36.5471 1.50293 34.8706 1.50043 32.5707C1.49542 25.4924 1.49542 18.414 1.50043 11.3357C1.50043 10.3747 1.47914 10.3695 0.582391 10.0721C0.364465 10.0007 0.192877 9.78122 0 9.62928V3.59978ZM8.24359 7.03463H1.50294C1.50294 7.52291 1.49042 7.97483 1.51046 8.42675C1.5151 8.49244 1.53326 8.55633 1.56372 8.61412C1.59418 8.67191 1.63623 8.72227 1.68704 8.7618C2.67773 9.29813 3.01339 10.163 3.01089 11.2863C2.99502 18.3153 2.99209 25.3456 3.00211 32.3772C3.00211 34.0654 3.8926 35.0017 5.507 35.0017H42.4867C44.1149 35.0017 44.9991 34.0745 44.9991 32.3811C44.9991 25.301 44.9991 18.2218 44.9991 11.1435C44.9991 10.089 45.3749 9.29942 46.2766 8.78907C46.3318 8.75613 46.3797 8.71146 46.417 8.65796C46.4544 8.60446 46.4804 8.54337 46.4933 8.4787C46.5171 7.99951 46.5033 7.51772 46.5033 7.03204H39.7401C39.7401 7.49824 39.7401 7.93328 39.7401 8.36831C39.7326 8.96438 39.4295 9.33578 38.9699 9.3241C38.5102 9.31241 38.2472 8.96568 38.2422 8.3852C38.2422 7.93717 38.2422 7.48915 38.2422 7.03463H33.7422C33.7422 7.52161 33.7422 7.97353 33.7422 8.42545C33.7309 8.97737 33.4102 9.33449 32.9656 9.3254C32.521 9.31631 32.253 8.96958 32.2455 8.42545C32.2455 7.96185 32.2455 7.49824 32.2455 7.03723H27.7454C27.7454 7.5294 27.753 7.98263 27.7454 8.43454C27.7342 8.96698 27.4386 9.31501 27.0078 9.3241C26.5531 9.33449 26.2563 8.98386 26.2563 8.41506C26.2563 7.95275 26.2563 7.48915 26.2563 7.02294H21.7425C21.7425 7.49564 21.7487 7.94497 21.7425 8.39429C21.7337 8.96049 21.4406 9.31891 20.991 9.32281C20.5414 9.3267 20.2483 8.97737 20.2395 8.40598C20.2395 7.94367 20.2395 7.48136 20.2395 7.02554H15.7382C15.7382 7.51902 15.7483 7.98523 15.7382 8.45403C15.7245 8.97348 15.4139 9.32799 14.9868 9.3254C14.5597 9.3228 14.2553 8.98386 14.2466 8.44883C14.2391 7.98262 14.2466 7.51772 14.2466 7.00087H9.73777C9.73777 7.54499 9.75155 8.02808 9.73777 8.51117C9.72399 8.99425 9.39085 9.33319 8.97629 9.3254C8.56173 9.31761 8.25737 8.98775 8.2461 8.48909C8.23608 8.01898 8.24359 7.55018 8.24359 7.03463ZM45.5665 3.09202C45.2045 2.06741 44.4393 1.55575 43.3121 1.55575H4.68915C4.56391 1.55575 4.43866 1.55575 4.31342 1.55575C3.44422 1.61938 2.63264 2.28687 2.46982 3.08682L45.5665 3.09202ZM46.4783 4.69841H1.52173V5.41915H46.4783V4.69841ZM8.44774 38.9145C8.59301 39.3755 8.87974 39.7745 9.26417 40.0507C9.64861 40.3269 10.1096 40.4651 10.5769 40.4443C11.4837 40.4183 12.3178 39.7742 12.5332 38.9145H8.44774ZM39.5598 38.8911H35.6346C35.5782 38.8911 35.5206 38.9041 35.4605 38.9106C35.6809 39.7794 36.5126 40.4196 37.4193 40.4443C37.8911 40.4651 38.3564 40.3243 38.7433 40.0436C39.1302 39.7629 39.4171 39.3578 39.5598 38.8911ZM13.4801 36.5912H7.52344V37.3094H13.4801V36.5912ZM40.4778 36.5912H34.5212V37.3107H40.4778V36.5912Z" fill="#025A8D"/>
<path d="M46.4783 4.69824V5.41898H1.52173V4.69824H46.4783Z" fill="white"/>
<path d="M13.4801 36.5913V37.3094H7.52344V36.5913H13.4801Z" fill="white"/>
<path d="M40.4777 36.5898V37.3093H34.5211V36.5898H40.4777Z" fill="white"/>
<path d="M22.1006 28.5059C22.0831 28.5877 22.0931 28.7059 22.0405 28.7656C21.8539 28.976 21.6648 29.2928 21.4406 29.3279C21.3007 29.3335 21.1615 29.3044 21.0346 29.2433C20.9076 29.1821 20.7965 29.0904 20.7104 28.976C20.3009 28.2503 19.9341 27.4996 19.612 26.7281C19.3728 26.1709 19.6922 25.6684 20.2821 25.6372C20.872 25.6061 21.4995 25.6229 22.1094 25.6242C23.0938 25.6242 23.3857 26.1268 22.8997 27.0449C24.4314 27.4007 25.7941 27.0917 26.9689 26.0307C27.9483 25.145 28.4268 23.9945 28.4906 22.6543C28.5157 22.1348 28.7411 21.8349 29.1331 21.7803C29.6404 21.7089 30.0161 22.1024 29.9861 22.727C29.8884 24.8178 29.0292 26.493 27.3559 27.6825C25.853 28.7461 24.201 29.011 22.4376 28.5474C22.3624 28.5266 22.2885 28.5033 22.2121 28.489C22.1743 28.4886 22.1367 28.4943 22.1006 28.5059Z" fill="#025A8D"/>
<path d="M25.0564 18.06C22.3173 17.3302 19.6158 19.4041 19.4993 22.2883C19.4993 22.3857 19.4993 22.4844 19.4868 22.5792C19.4279 23.0285 19.0947 23.3428 18.7027 23.3207C18.6046 23.3166 18.5083 23.2922 18.4194 23.2488C18.3305 23.2054 18.2509 23.1441 18.1853 23.0683C18.1197 22.9925 18.0694 22.9039 18.0374 22.8076C18.0054 22.7113 17.9923 22.6094 17.9989 22.5078C18.0114 20.578 18.7503 18.9872 20.1694 17.7587C21.7449 16.3978 23.6173 16.0354 25.8054 16.6146C25.8304 16.5978 25.8742 16.5822 25.8767 16.5627C25.9256 16.1445 26.0646 15.8004 26.523 15.7329C26.9814 15.6653 27.2306 15.9575 27.4135 16.3549C27.694 16.9679 28.0021 17.5678 28.2902 18.1795C28.6396 18.9275 28.3178 19.4573 27.5112 19.4677C26.9651 19.4742 26.4178 19.4677 25.8717 19.4677C24.8948 19.4651 24.5993 18.9742 25.0564 18.06Z" fill="#025A8D"/>
</g>
<defs>
<clipPath id="clip0_35_1404">
<rect width="48" height="42" fill="white"/>
</clipPath>
</defs>
</svg>
