<svg width="371" height="270" viewBox="0 0 371 270" fill="none" xmlns="http://www.w3.org/2000/svg">
<g opacity="0.1" clip-path="url(#clip0_43_1580)">
<path d="M99.9984 260.436C81.0252 260.436 62.4781 254.84 46.7025 244.355C30.9269 233.869 18.6313 218.966 11.3706 201.53C4.10986 184.094 2.21013 164.908 5.91161 146.397C9.61309 127.887 18.7495 110.885 32.1656 97.5395C45.5816 84.1944 62.6748 75.1063 81.2834 71.4244C99.892 67.7425 119.18 69.6322 136.709 76.8545C154.238 84.0768 169.22 96.3074 179.761 112C190.302 127.692 195.928 146.141 195.928 165.013C195.9 190.312 185.784 214.567 167.799 232.456C149.815 250.345 125.432 260.408 99.9984 260.436ZM99.9984 91.9829C85.4775 91.9829 71.2826 96.2661 59.209 104.291C47.1353 112.316 37.7251 123.721 32.1682 137.066C26.6113 150.41 25.1573 165.095 27.9902 179.261C30.8231 193.428 37.8156 206.44 48.0834 216.654C58.3512 226.867 71.4333 233.823 85.6751 236.641C99.917 239.459 114.679 238.012 128.095 232.485C141.51 226.957 152.977 217.597 161.044 205.587C169.111 193.577 173.417 179.458 173.417 165.013C173.396 145.651 165.654 127.088 151.89 113.397C138.126 99.7055 119.464 92.0043 99.9984 91.9829Z" fill="#9B9B9B" stroke="#9B9B9B" stroke-width="6" stroke-miterlimit="10"/>
<path d="M271.002 260.436C252.028 260.436 233.481 254.84 217.706 244.355C201.93 233.869 189.635 218.966 182.374 201.53C175.113 184.094 173.213 164.908 176.915 146.397C180.616 127.887 189.753 110.885 203.169 97.5395C216.585 84.1944 233.678 75.1063 252.287 71.4244C270.895 67.7425 290.184 69.6322 307.713 76.8545C325.241 84.0768 340.224 96.3074 350.765 112C361.306 127.692 366.932 146.141 366.932 165.013C366.903 190.312 356.787 214.567 338.803 232.456C320.819 250.345 296.435 260.408 271.002 260.436ZM271.002 91.9829C256.481 91.9829 242.286 96.2661 230.212 104.291C218.139 112.316 208.728 123.721 203.172 137.066C197.615 150.41 196.161 165.095 198.993 179.261C201.826 193.428 208.819 206.44 219.087 216.654C229.355 226.867 242.437 233.823 256.678 236.641C270.92 239.459 285.682 238.012 299.098 232.485C312.513 226.957 323.98 217.597 332.047 205.587C340.115 193.577 344.421 179.458 344.421 165.013C344.399 145.651 336.657 127.088 322.893 113.397C309.129 99.7055 290.467 92.0043 271.002 91.9829Z" fill="#9B9B9B" stroke="#9B9B9B" stroke-width="6" stroke-miterlimit="10"/>
<path d="M148.153 233.7L185.5 270V191.223L148.153 233.7Z" fill="#9B9B9B"/>
<path d="M222.86 233.7L185.5 270V191.223L222.86 233.7Z" fill="#9B9B9B"/>
<path d="M95.9164 186.556C91.1891 186.55 86.5695 185.151 82.6414 182.535C78.7133 179.918 75.6532 176.202 73.8478 171.856C72.0424 167.51 71.5728 162.729 72.4983 158.118C73.4239 153.507 75.703 149.272 79.0477 145.949C82.3924 142.625 86.6524 140.363 91.2893 139.448C95.9262 138.532 100.732 139.005 105.099 140.805C109.466 142.606 113.198 145.654 115.824 149.565C118.45 153.475 119.852 158.072 119.852 162.774C119.844 169.084 117.319 175.133 112.832 179.592C108.344 184.051 102.26 186.556 95.9164 186.556Z" fill="#9B9B9B"/>
<path d="M274.907 186.556C270.18 186.548 265.562 185.146 261.636 182.528C257.71 179.91 254.652 176.193 252.848 171.847C251.045 167.501 250.577 162.72 251.504 158.11C252.431 153.499 254.712 149.266 258.057 145.944C261.402 142.622 265.662 140.361 270.299 139.447C274.935 138.532 279.74 139.006 284.107 140.807C288.473 142.608 292.204 145.656 294.83 149.566C297.455 153.476 298.856 158.072 298.856 162.774C298.849 169.086 296.322 175.137 291.831 179.597C287.34 184.056 281.253 186.559 274.907 186.556Z" fill="#9B9B9B"/>
<path d="M209.259 125.463L189.419 114.874C195.193 104.177 201.89 93.9997 209.435 84.4559C252.396 30.1888 313.42 8.56565 357.046 0L361.412 21.9605C321.516 29.8112 265.821 49.4245 227.159 98.3094C220.415 106.829 214.426 115.915 209.259 125.463Z" fill="#9B9B9B"/>
<path d="M162.067 125.463C156.936 115.914 150.978 106.829 144.261 98.3094C105.558 49.4245 49.8771 29.8112 10.008 21.9605L14.3611 0C57.9866 8.56565 119.011 30.1888 161.985 84.4559C169.529 94.0007 176.226 104.178 182.001 114.874L162.067 125.463Z" fill="#9B9B9B"/>
</g>
<defs>
<clipPath id="clip0_43_1580">
<rect width="371" height="270" fill="white"/>
</clipPath>
</defs>
</svg>
