<svg width="63" height="63" viewBox="0 0 63 63" fill="none" xmlns="http://www.w3.org/2000/svg">
<g clip-path="url(#clip0_80_75)">
<path d="M16.5433 55.5499C16.797 56.1376 17.0406 56.6758 17.2637 57.2225C17.882 58.7316 17.3165 60.2152 15.8364 60.8931C14.4466 61.5301 13.05 62.1484 11.6397 62.7377C10.0949 63.3832 8.59949 62.816 7.92502 61.2916C5.35544 55.4903 2.80063 49.6822 0.260578 43.8673C-0.391751 42.3702 0.207779 40.8764 1.68787 40.2002C3.03851 39.5836 4.40449 38.9977 5.76705 38.4067C7.40043 37.6981 8.83283 38.2364 9.63334 39.8579C9.67932 39.9515 9.72701 40.0435 9.80366 40.1985C10.9652 39.6484 12.1081 39.1033 13.2544 38.5634C15.5758 37.4699 17.8837 36.3492 20.2273 35.2931C23.179 33.9765 26.1698 34.0259 28.8932 35.7547C31.2368 37.2417 33.8325 37.7986 36.4231 38.5191C37.3633 38.778 38.3086 39.0301 39.2504 39.2805C40.4208 39.5696 41.4285 40.3115 42.0522 41.3431C42.2634 41.6838 42.4457 41.7331 42.8153 41.6241C46.5623 40.5119 50.2992 39.4099 54.0564 38.33C55.6966 37.8599 57.3675 37.5993 59.0911 37.8668C61.9866 38.3164 63.5842 40.7061 62.8075 43.5454C62.2659 45.5263 61.0686 46.9877 59.1303 47.7405C52.7035 50.2386 46.2711 52.7203 39.8329 55.1855C37.9202 55.9162 35.936 56.5225 33.8717 56.2227C32.4121 56.0115 30.9899 55.5312 29.5609 55.1361C27.5579 54.5808 25.5618 54 23.5673 53.4141C22.4986 53.0878 21.3448 53.1898 20.3499 53.6985C19.0896 54.31 17.8326 54.9214 16.5433 55.5499ZM15.816 53.9114C17.0747 53.2999 18.2448 52.7464 19.3927 52.1656C20.1285 51.7789 20.9334 51.5417 21.7613 51.4674C22.5891 51.3932 23.4234 51.4834 24.2162 51.733C26.7983 52.5011 29.4195 53.1484 31.9726 54C33.9393 54.6803 36.0836 54.6411 38.0241 53.8893C44.9346 51.2924 51.8275 48.6512 58.7028 45.9657C60.0074 45.4548 60.762 44.3545 61.0958 43.0021C61.5301 41.2409 60.6955 39.9805 58.9208 39.6518C57.701 39.4385 56.4482 39.5131 55.2623 39.8698C51.241 41.0025 47.2402 42.1947 43.2189 43.3495C42.8306 43.462 42.817 43.6902 42.7948 44.0002C42.5717 47.2364 39.7887 49.2207 36.6513 48.3861C34.478 47.807 32.3048 47.229 30.1315 46.6522C28.7587 46.286 27.3842 45.9232 26.0165 45.5365C25.4357 45.3662 25.1802 44.9268 25.3233 44.4362C25.4664 43.9457 25.899 43.7055 26.4764 43.8299C26.6211 43.8622 26.7659 43.9014 26.909 43.9389C30.3154 44.8484 33.7116 45.7682 37.1163 46.6641C38.8825 47.1291 40.5227 46.228 40.9213 44.6031C41.3352 42.9374 40.3797 41.4215 38.6066 40.9445C36.8336 40.4676 35.0435 39.9771 33.2551 39.5257C31.6456 39.1204 30.1229 38.594 28.7059 37.6521C26.1272 35.9489 23.3561 35.7428 20.5305 37.0782C17.2501 38.6258 13.9731 40.1838 10.6995 41.7519C10.6485 41.7774 10.6161 41.8439 10.548 41.9222C12.2886 45.8925 14.0378 49.8594 15.816 53.9114ZM6.96952 39.8936C6.79594 39.9401 6.62531 39.997 6.45856 40.064C5.1539 40.6294 3.85265 41.1966 2.5548 41.7757C1.79347 42.1164 1.61974 42.549 1.95357 43.3087C4.46069 49.0134 6.97122 54.7171 9.48516 60.4196C9.83602 61.2184 10.2669 61.3836 11.0623 61.0413C12.3113 60.503 13.5547 59.958 14.7924 59.4061C15.7649 58.9769 15.9182 58.58 15.4941 57.616C14.412 55.1497 13.3282 52.6839 12.2427 50.2188C10.8517 47.0564 9.45961 43.8934 8.06639 40.7299C7.86711 40.2735 7.63036 39.9004 6.96952 39.8936Z" fill="#025A8D"/>
<path d="M27.2207 34.0583C26.4627 34.0464 26.1034 33.5473 26.272 32.8353C26.5752 31.5783 26.8885 30.3213 27.2496 29.0797C27.391 28.5942 27.2854 28.3166 26.8936 28.0134C25.9024 27.2453 24.9537 26.426 23.9829 25.6289C23.632 25.3427 23.3765 25.0259 23.5315 24.5388C23.6865 24.0517 24.068 23.9137 24.5211 23.8864C25.8155 23.8081 27.1083 23.7161 28.4027 23.6667C28.5793 23.6787 28.7545 23.6281 28.8974 23.5237C29.0404 23.4194 29.142 23.268 29.1845 23.0961C29.6086 21.9413 30.0752 20.8018 30.5198 19.6556C30.7037 19.1855 30.8996 18.7324 31.5145 18.7409C32.1293 18.7494 32.3064 19.2212 32.487 19.6862C32.9264 20.8121 33.3931 21.9294 33.7985 23.0672C33.9534 23.5015 34.1902 23.6514 34.6262 23.6684C35.8355 23.7178 37.0431 23.8013 38.2524 23.8694C38.7769 23.8984 39.2964 23.9512 39.4736 24.5694C39.6319 25.1264 39.2607 25.4313 38.8911 25.7345C37.9202 26.5282 36.963 27.3355 35.982 28.119C35.6958 28.3473 35.6073 28.5585 35.7112 28.9247C36.0518 30.1493 36.3601 31.3842 36.682 32.6156C36.8029 33.084 36.8813 33.5507 36.4146 33.888C35.9479 34.2252 35.5357 34.0055 35.1253 33.7398C34.0727 33.0585 33.0065 32.4061 31.9641 31.7112C31.6354 31.4932 31.3952 31.4744 31.0563 31.701C29.9799 32.418 28.8796 33.1027 27.7827 33.7892C27.602 33.8922 27.4142 33.9821 27.2207 34.0583ZM36.2868 25.5607C35.3194 25.4943 34.5581 25.3904 33.7968 25.4057C33.0354 25.4211 32.6318 25.0651 32.3984 24.3838C32.1532 23.6565 31.8415 22.9513 31.4991 22.0844C31.1261 23.0195 30.8025 23.774 30.5249 24.5456C30.3188 25.123 29.956 25.3853 29.3326 25.3972C28.5168 25.416 27.701 25.4977 26.7182 25.5676C27.4319 26.162 28.0024 26.6883 28.6241 27.1448C29.2458 27.6012 29.3871 28.0901 29.1589 28.8003C28.9188 29.5429 28.7621 30.3128 28.5338 31.2019C29.3684 30.6705 30.0786 30.2464 30.7565 29.778C31.2675 29.4288 31.7154 29.4271 32.2196 29.7695C32.9145 30.2396 33.6349 30.6756 34.4542 31.1951C34.2191 30.2907 34.0437 29.5072 33.807 28.7441C33.6026 28.0867 33.744 27.6098 34.3043 27.1942C34.9515 26.7138 35.5442 26.1841 36.2868 25.5607Z" fill="#025A8D"/>
<path d="M58.6687 24.9919C58.5281 25.2247 58.36 25.4397 58.1679 25.6323C57.1835 26.4748 56.1831 27.2986 55.1669 28.1037C54.8484 28.3558 54.7854 28.5908 54.8927 28.9724C55.2197 30.1357 55.5075 31.3109 55.8141 32.4794C55.947 32.9801 56.1122 33.4911 55.5978 33.876C55.0834 34.261 54.6423 33.968 54.2029 33.6853C53.169 33.0176 52.1198 32.3704 51.0962 31.6891C50.9768 31.5893 50.8261 31.5346 50.6704 31.5346C50.5148 31.5346 50.3641 31.5893 50.2446 31.6891C49.1665 32.4044 48.0645 33.084 46.9762 33.7875C46.5759 34.0464 46.1722 34.2048 45.743 33.8846C45.3138 33.5643 45.3496 33.1334 45.4739 32.6735C45.7822 31.5256 46.0326 30.3622 46.3851 29.2296C46.5742 28.6215 46.4345 28.2791 45.9372 27.9061C44.9868 27.1942 44.0977 26.4005 43.1729 25.6527C42.7965 25.3478 42.5461 25.0089 42.7198 24.503C42.8936 23.9972 43.2904 23.9154 43.7418 23.8882C45.0566 23.8081 46.3732 23.7519 47.683 23.6327C47.8143 23.6065 47.9382 23.5516 48.0457 23.4718C48.1532 23.3919 48.2417 23.2892 48.3047 23.1711C48.8156 21.9788 49.2738 20.7729 49.7388 19.5653C49.9091 19.1224 50.1271 18.7511 50.667 18.746C51.2069 18.7409 51.4369 19.1054 51.6072 19.55C52.05 20.6963 52.5337 21.8306 52.9391 22.9905C53.1094 23.5015 53.399 23.6718 53.9031 23.6855C55.155 23.7332 56.4051 23.8081 57.6502 23.8967C58.328 23.9427 58.6653 24.2663 58.6687 24.9919ZM53.617 31.1798C53.4007 30.3282 53.2763 29.5924 53.0294 28.8991C52.7449 28.085 52.9578 27.5246 53.6476 27.0409C54.2386 26.6253 54.7717 26.1279 55.4598 25.5608C54.4379 25.4926 53.6187 25.416 52.7977 25.3904C52.2084 25.3751 51.8524 25.123 51.6498 24.5746C51.3568 23.7791 51.0315 22.9956 50.6653 22.0708C50.3093 22.9701 49.984 23.7485 49.6962 24.5371C49.4867 25.1043 49.129 25.3802 48.5039 25.3887C47.6847 25.404 46.8672 25.4892 45.8742 25.559C46.6389 26.1927 47.2759 26.7343 47.9317 27.2623C48.383 27.62 48.5431 28.0254 48.3694 28.5994C48.1292 29.4067 47.9487 30.2311 47.7068 31.1951C48.5414 30.6654 49.2602 30.2328 49.9551 29.761C50.1551 29.6014 50.4034 29.5144 50.6593 29.5144C50.9153 29.5144 51.1636 29.6014 51.3636 29.761C52.0636 30.2192 52.7841 30.6535 53.617 31.1798Z" fill="#025A8D"/>
<path d="M16.6045 34.0583C16.3961 33.9724 16.1935 33.8728 15.9982 33.7602C14.9184 33.0789 13.8385 32.4078 12.7791 31.701C12.4385 31.4745 12.2017 31.4949 11.8747 31.7129C10.8136 32.4181 9.72698 33.084 8.65736 33.7739C8.25881 34.031 7.85856 34.2099 7.42253 33.8931C6.98651 33.5763 7.00014 33.1692 7.12958 32.7008C7.47022 31.454 7.76829 30.1936 8.11233 28.9536C8.17194 28.8089 8.17866 28.6478 8.13131 28.4986C8.08397 28.3494 7.98559 28.2217 7.85345 28.1378C6.83152 27.3338 5.85388 26.4907 4.84558 25.6766C4.46747 25.3717 4.21199 25.0276 4.37209 24.5286C4.53219 24.0295 4.93244 23.9273 5.38209 23.9001C6.63225 23.8285 7.88411 23.74 9.12915 23.6957C9.61457 23.677 9.87686 23.5151 10.0472 23.0331C10.4645 21.8545 10.9516 20.6997 11.4097 19.5329C11.5801 19.1105 11.7981 18.7699 12.3056 18.758C12.8456 18.746 13.0857 19.0986 13.2577 19.5449C13.7261 20.7508 14.2149 21.9499 14.668 23.1609C14.7974 23.5015 14.9746 23.6582 15.3493 23.6718C16.6641 23.7298 17.9785 23.807 19.2922 23.9035C20.0723 23.9597 20.4844 24.4281 20.2869 25.0379C20.1952 25.2721 20.043 25.4778 19.8457 25.634C18.9396 26.4039 18.0335 27.1771 17.0899 27.8993C16.596 28.2774 16.4087 28.6198 16.6199 29.2704C16.9963 30.4167 17.2552 31.6022 17.5515 32.7757C17.7355 33.4979 17.388 34.0447 16.6045 34.0583ZM12.3329 22.0725C11.9922 22.9343 11.6737 23.6463 11.4302 24.3855C11.1968 25.0873 10.7864 25.4075 10.0267 25.4075C9.26711 25.4075 8.48363 25.5028 7.55368 25.5693C8.18387 26.0905 8.65395 26.5589 9.19898 26.9114C10.0744 27.4786 10.2669 28.1821 9.91263 29.141C9.6861 29.7525 9.57198 30.4065 9.38123 31.1951C10.2328 30.6501 10.9414 30.2226 11.6209 29.7576C11.8201 29.5964 12.0681 29.5076 12.3243 29.5057C12.5805 29.5039 12.8297 29.5891 13.0312 29.7474C13.7312 30.2141 14.4483 30.6552 15.2845 31.1883C15.0478 30.2481 14.8809 29.4408 14.6373 28.6573C14.4449 28.0339 14.6084 27.6047 15.1108 27.218C15.758 26.7224 16.3712 26.1841 17.1189 25.5642C16.1566 25.4994 15.3612 25.4075 14.5641 25.3938C13.893 25.3938 13.4996 25.1145 13.2782 24.4877C13.0057 23.7212 12.6837 22.9633 12.3329 22.0725Z" fill="#025A8D"/>
<path d="M31.4701 11.8427C27.5153 11.8512 24.1378 15.0431 23.9624 18.8908C23.9266 19.6692 24.1889 20.2159 24.843 20.577C25.2875 20.8223 25.761 21.0114 26.2175 21.2345C26.7437 21.49 26.9652 21.9703 26.7284 22.4268C26.4849 22.9173 26.0659 23.0706 25.5532 22.8747C25.1151 22.7152 24.6873 22.5287 24.2724 22.316C22.5607 21.3997 21.985 20.2721 22.2115 18.3475C22.4667 16.0545 23.5625 13.9375 25.2872 12.4053C27.0119 10.873 29.2432 10.0342 31.5502 10.0509C36.2936 10.0679 40.1957 13.6277 40.7867 18.3969C41.1171 21.0522 39.4241 22.2496 37.1895 22.9275C36.7603 23.0587 36.3822 22.8066 36.2374 22.3723C36.1944 22.2683 36.1724 22.1569 36.1727 22.0444C36.1729 21.9319 36.1955 21.8205 36.239 21.7168C36.2826 21.6131 36.3463 21.519 36.4264 21.44C36.5065 21.361 36.6015 21.2987 36.7058 21.2566C37.2355 20.9926 37.7839 20.7576 38.2932 20.4595C38.8025 20.1614 39.0477 19.6675 39.0307 19.0185C38.9268 15.0891 35.5153 11.8359 31.4701 11.8427Z" fill="#025A8D"/>
<path d="M42.553 19.4818C42.6555 17.3341 43.6039 15.3143 45.191 13.8638C46.7781 12.4132 48.8749 11.6499 51.0231 11.7406C55.264 11.8751 58.8374 15.5899 58.7897 19.814C58.7744 21.2055 57.267 22.8645 55.8942 22.9139C55.7238 22.9014 55.5588 22.8485 55.4128 22.7597C55.2668 22.6708 55.144 22.5486 55.0545 22.4029C54.9387 22.1491 55.1159 21.7421 55.2249 21.4201C55.2606 21.3128 55.4565 21.2498 55.5877 21.1834C57.095 20.434 57.2142 20.1921 56.8804 18.5399C56.2621 15.4894 53.3343 13.299 50.1936 13.5358C48.6748 13.6587 47.2501 14.3212 46.1773 15.4034C45.1046 16.4856 44.4545 17.916 44.3448 19.4359C44.3005 20.1052 44.544 20.5379 45.0942 20.8444C45.3905 21.0148 45.7159 21.1289 45.9952 21.3163C46.3648 21.5666 46.5198 21.9277 46.3358 22.3689C46.2712 22.564 46.1371 22.7285 45.959 22.8312C45.781 22.9339 45.5714 22.9676 45.3701 22.9258C43.7623 22.6771 42.4712 21.0863 42.553 19.4818Z" fill="#025A8D"/>
<path d="M12.3364 11.7371C16.7273 11.7371 20.3619 15.285 20.4488 19.6539C20.4777 21.1527 19.0743 22.7708 17.5891 22.9309C17.3859 22.9633 17.178 22.9199 17.0047 22.8091C16.8314 22.6982 16.7048 22.5277 16.6489 22.3297C16.4888 21.8851 16.6608 21.5308 17.0424 21.2924C17.3285 21.1221 17.647 20.9858 17.9416 20.8206C18.4713 20.5225 18.6945 20.0967 18.657 19.458C18.5489 17.8623 17.844 16.3658 16.6826 15.2662C15.5212 14.1666 13.9884 13.5446 12.3892 13.5238C9.08496 13.5 6.25764 16.0992 5.99364 19.3387C5.93232 20.1222 6.2372 20.5958 6.88782 20.9245C7.16 21.0418 7.42402 21.1772 7.67811 21.3299C7.77027 21.3853 7.85058 21.4584 7.91443 21.545C7.97829 21.6316 8.02443 21.7299 8.05022 21.8343C8.07601 21.9387 8.08094 22.0472 8.06473 22.1536C8.04852 22.2599 8.01148 22.362 7.95574 22.454C7.74965 22.8543 7.37835 23.0604 6.94232 22.8969C5.15736 22.2275 3.99748 21.2038 4.21719 19.0696C4.43277 17.0632 5.37981 15.2064 6.87746 13.8538C8.37511 12.5013 10.3184 11.7478 12.3364 11.7371Z" fill="#025A8D"/>
<path d="M31.5059 9.57229C30.5584 9.5733 29.6319 9.29302 28.8438 8.76697C28.0557 8.24092 27.4415 7.49277 27.079 6.61732C26.7165 5.74186 26.622 4.77849 26.8074 3.84927C26.9929 2.92005 27.45 2.06679 28.1209 1.39761C28.7917 0.728426 29.6461 0.273431 30.5757 0.0902697C31.5054 -0.0928914 32.4685 0.00402526 33.343 0.368741C34.2175 0.733456 34.9641 1.34956 35.4882 2.13898C36.0123 2.92841 36.2902 3.85563 36.2869 4.80318C36.2801 6.06801 35.7739 7.27895 34.8784 8.17222C33.9829 9.06549 32.7708 9.56872 31.5059 9.57229ZM31.4685 7.78899C32.0627 7.7937 32.6449 7.62193 33.1413 7.29542C33.6378 6.96891 34.0261 6.50236 34.2572 5.95491C34.4882 5.40745 34.5516 4.80373 34.4392 4.22024C34.3268 3.63675 34.0437 3.09976 33.6258 2.67732C33.2079 2.25488 32.674 1.96601 32.0918 1.8473C31.5096 1.7286 30.9052 1.7854 30.3553 2.01053C29.8054 2.23565 29.3347 2.61896 29.0029 3.11187C28.671 3.60478 28.493 4.18512 28.4913 4.77933C28.4876 5.57305 28.7991 6.33577 29.3573 6.90005C29.9155 7.46432 30.6748 7.78403 31.4685 7.78899Z" fill="#025A8D"/>
<path d="M16.5722 7.35296C16.5735 8.19295 16.3253 9.0144 15.859 9.71308C15.3927 10.4118 14.7294 10.9562 13.9532 11.2772C13.177 11.5983 12.3229 11.6815 11.4993 11.5163C10.6758 11.3511 9.91983 10.945 9.32744 10.3495C8.73505 9.75399 8.33292 8.9959 8.17208 8.17145C8.01123 7.347 8.09893 6.49336 8.42404 5.71883C8.74914 4.94431 9.297 4.28382 9.9981 3.82119C10.6992 3.35856 11.5219 3.11463 12.3619 3.12037C13.4775 3.1359 14.5428 3.58752 15.3296 4.37856C16.1165 5.1696 16.5625 6.23722 16.5722 7.35296ZM12.3431 9.81075C12.8268 9.80872 13.299 9.66374 13.7004 9.39405C14.1019 9.12436 14.4147 8.742 14.5994 8.29505C14.7842 7.84809 14.8326 7.35648 14.7388 6.88204C14.6449 6.4076 14.4129 5.9715 14.0718 5.62857C13.7308 5.28564 13.296 5.0512 12.8221 4.95471C12.3482 4.85822 11.8563 4.904 11.4084 5.08629C10.9604 5.26857 10.5764 5.57923 10.3045 5.9792C10.0326 6.37918 9.885 6.8506 9.88029 7.33422C9.88206 7.98814 10.1417 8.61497 10.6028 9.07863C11.0639 9.5423 11.6893 9.80537 12.3431 9.81075Z" fill="#025A8D"/>
<path d="M54.8944 7.43642C54.8782 8.27245 54.6149 9.08496 54.1375 9.77151C53.6602 10.4581 52.9903 10.9879 52.2123 11.2942C51.4343 11.6006 50.5829 11.6697 49.7657 11.4929C48.9484 11.3161 48.2018 10.9012 47.62 10.3007C47.0382 9.70011 46.6472 8.94072 46.4964 8.11826C46.3455 7.2958 46.4415 6.44708 46.7724 5.67913C47.1032 4.91117 47.6539 4.25835 48.3552 3.80299C49.0565 3.34763 49.877 3.11011 50.7131 3.12038C51.8391 3.14054 52.9113 3.60602 53.695 4.41492C54.4787 5.22383 54.9099 6.31026 54.8944 7.43642ZM53.1112 7.38533C53.1164 6.90201 52.9786 6.42794 52.7152 6.02272C52.4517 5.61751 52.0743 5.29924 51.6304 5.10795C51.1866 4.91665 50.696 4.86087 50.2206 4.94761C49.7451 5.03435 49.3058 5.25975 48.9581 5.59546C48.6104 5.93117 48.3697 6.36219 48.2663 6.83434C48.1628 7.30649 48.2013 7.79868 48.3769 8.24901C48.5524 8.69935 48.8572 9.08773 49.2529 9.3653C49.6485 9.64288 50.1175 9.79727 50.6007 9.80906C50.9253 9.8172 51.2483 9.76072 51.5509 9.64288C51.8534 9.52504 52.1296 9.34821 52.3632 9.12267C52.5968 8.89712 52.7833 8.62738 52.9117 8.32912C53.0401 8.03086 53.1079 7.71004 53.1112 7.38533Z" fill="#025A8D"/>
</g>
<defs>
<clipPath id="clip0_80_75">
<rect width="63" height="63" fill="white"/>
</clipPath>
</defs>
</svg>
