<svg width="60" height="66" viewBox="0 0 60 66" fill="none" xmlns="http://www.w3.org/2000/svg">
<g clip-path="url(#clip0_35_1346)">
<path d="M44.8686 1.14441e-05C48.3158 0.768293 50.8219 2.9511 53.1039 5.46735C53.2763 5.65814 53.5262 5.84204 53.5762 6.0672C53.6589 6.43329 53.7485 6.92658 53.5762 7.18783C53.4038 7.44908 52.8419 7.70345 52.5558 7.60892C51.0046 7.1397 49.7257 7.59345 48.4502 8.49579C46.9317 9.56829 45.2529 10.3744 43.3673 10.5772C41.2163 10.8075 39.9201 10.2953 37.9552 8.56283C36.5953 9.17298 36.0369 10.4225 36.2592 12.3441C37.4657 12.516 38.6878 12.6569 39.8874 12.8889C48.6088 14.5716 55.9823 22.043 57.5094 30.7175C57.6266 31.3861 57.3008 31.9206 56.6993 32.0461C56.146 32.1595 55.6186 31.8038 55.4928 31.1575C55.077 29.0517 54.3375 27.0225 53.3004 25.1419C53.1142 24.8084 52.9126 24.4819 52.692 24.1106C51.7698 25.1591 51.1304 26.3141 50.5737 27.5275C50.179 28.3869 49.7705 29.2463 49.2965 30.0524C48.4347 31.527 47.1678 32.3022 45.4132 32.242C44.1447 32.1991 42.8727 32.1802 41.6041 32.2094C40.1046 32.2438 38.9291 32.9433 38.0449 34.131C37.1782 35.2634 36.5913 36.5836 36.3316 37.9844C36.3126 38.091 36.2937 38.1958 36.2661 38.2989C36.0938 38.9177 35.6473 39.2614 35.1061 39.1824C34.5253 39.0964 34.165 38.6169 34.2443 37.9552C34.4477 36.398 35.0406 34.9817 35.8542 33.6463C37.4657 31.008 39.865 29.9475 42.8916 30.1022C43.7741 30.1486 44.6583 30.1314 45.539 30.1744C45.9073 30.2057 46.2767 30.1298 46.6025 29.9559C46.9283 29.782 47.1966 29.5176 47.3747 29.1947C47.7851 28.5399 48.1485 27.857 48.4623 27.1511C49.1948 25.4152 50.1238 23.8081 51.4458 22.3902C50.2509 20.8387 48.8325 19.4718 47.2368 18.3339C46.7197 18.8066 46.2371 19.2999 45.7011 19.7192C44.2877 20.8244 42.7296 21.2506 40.9905 20.5545C39.7529 20.0595 38.7171 20.2692 37.6484 21.1217C35.8662 22.5431 33.7721 23.1584 31.4831 22.8319C29.8647 22.6016 28.6203 21.6528 27.6206 20.4342C26.7588 19.3755 26.0176 18.2136 25.1782 17.0345C23.1273 18.1576 21.2888 19.6292 19.7455 21.383C19.9316 21.5188 20.104 21.6305 20.2625 21.7611C21.2967 22.6291 22.386 23.4472 23.365 24.3839C25.1679 26.1199 25.6695 28.2219 24.7439 30.5714C24.1923 31.9653 23.5253 33.3214 22.879 34.6672C22.8238 34.785 22.7456 34.8905 22.649 34.9778C22.5525 35.0651 22.4394 35.1323 22.3165 35.1755C22.1936 35.2187 22.0632 35.2371 21.9331 35.2295C21.803 35.2219 21.6757 35.1885 21.5587 35.1313C21.4336 35.079 21.3205 35.002 21.2262 34.9049C21.1318 34.8078 21.0583 34.6926 21.0099 34.5663C20.9616 34.4399 20.9394 34.3051 20.9449 34.1701C20.9503 34.035 20.9832 33.9024 21.0416 33.7803C21.3588 33.0309 21.7517 32.3125 22.0758 31.5631C22.3998 30.8138 22.7049 30.0163 22.9755 29.2308C23.3443 28.1566 23.0461 27.2095 22.3515 26.3502C21.2708 25.0113 19.9196 23.9989 18.4528 23.033C17.464 24.3424 16.6526 25.7762 16.0397 27.2972C15.0117 29.8071 14.4819 32.4922 14.4799 35.2034C14.48 35.5977 14.3381 35.979 14.08 36.2777C13.8766 36.4736 13.3165 36.5561 13.0924 36.4117C12.7839 36.2175 12.4443 35.7483 12.465 35.4183C12.5753 33.6445 12.6219 31.8398 13.0028 30.1159C13.9896 25.6835 16.2897 21.6492 19.6044 18.5366C22.9192 15.4239 27.0956 13.3766 31.5917 12.6603C32.4173 12.528 33.255 12.4678 34.0789 12.375C34.3426 10.4844 33.7548 9.16782 32.3932 8.56454C29.7389 11.2458 26.7053 11.1203 23.3357 9.35517C22.6361 8.97744 21.9592 8.55907 21.3088 8.1022C20.3418 7.4422 19.3059 7.23079 18.1804 7.5522C17.6186 7.71376 17.1032 7.74986 16.7395 7.20845C16.3758 6.66704 16.6034 6.19438 16.9877 5.7561C18.7837 3.6936 20.7521 1.84939 23.2857 0.720168C23.9838 0.409074 24.7456 0.235479 25.4781 -0.00170898H27.1586C27.8722 0.216572 28.5996 0.395323 29.2959 0.660011C31.7089 1.58298 32.7293 3.48907 32.9792 5.9297C33.0016 6.1497 33.0378 6.44532 33.1843 6.5622C33.8462 7.08642 34.5511 7.55907 35.2027 8.02314C35.7042 7.63126 36.2127 7.16376 36.7884 6.80798C36.9649 6.72014 37.1141 6.58609 37.22 6.42018C37.326 6.25427 37.3847 6.06274 37.3899 5.86611C37.6553 2.89439 39.0842 1.19111 41.9626 0.345482C42.3711 0.225169 42.7796 0.113451 43.1881 0.00173187L44.8686 1.14441e-05ZM27.1673 16.0789C27.9032 17.4969 28.7185 18.798 29.925 19.8224C30.7334 20.5099 31.6486 20.9481 32.7517 20.8536C34.1582 20.735 35.4681 20.3208 36.5436 19.3961C38.038 18.1088 39.665 17.9317 41.4852 18.5367C43.1105 19.0764 44.3842 18.5917 45.3529 17.1617C40.4906 14.1917 33.2912 13.4063 27.1673 16.0789ZM30.7971 5.58251C30.7804 5.38473 30.7534 5.18795 30.7161 4.99298C30.2266 3.04907 27.7981 1.6947 25.5695 2.13814C23.4064 2.56611 21.8034 3.92392 20.3039 5.25423C21.3949 5.88158 22.4481 6.5347 23.5443 7.10532C24.4711 7.60242 25.4324 8.03264 26.4209 8.39267C27.7998 8.87907 29.096 8.57829 30.349 7.64329C29.4321 7.25829 28.6254 6.92142 27.8136 6.57423C27.1052 6.26829 26.8398 5.73892 27.0794 5.15283C27.3189 4.56673 27.9136 4.39142 28.603 4.66986C29.2925 4.9483 30.0146 5.25595 30.7971 5.58251ZM39.9977 7.64501C40.9974 8.41329 42.0453 8.81032 43.1553 8.54907C44.2563 8.27171 45.3224 7.87158 46.3336 7.35626C47.5953 6.73579 48.788 5.97095 50.0324 5.25595C48.8259 4.15767 47.485 3.08689 45.8389 2.43376C44.1291 1.75486 42.5365 2.09001 41.025 2.97689C40.0787 3.53033 39.6737 4.4361 39.534 5.59626C40.3493 5.25251 41.0387 4.95689 41.7351 4.67501C42.4314 4.39314 43.0278 4.58392 43.2656 5.14423C43.5035 5.70454 43.2484 6.26658 42.5469 6.57079C41.7385 6.91798 40.9267 7.25314 39.9994 7.64329L39.9977 7.64501Z" fill="#025A8D"/>
<path d="M17.205 66C15.3125 64.1277 13.4211 62.2548 11.5309 60.3814C7.88723 56.7548 4.24642 53.1277 0.608493 49.5C-0.203319 48.6905 -0.203319 48.2608 0.608493 47.4478C1.81041 46.2481 3.01405 45.049 4.21941 43.8505C4.94504 43.1303 5.41387 43.1269 6.13606 43.8505C6.48078 44.1942 6.80481 44.5758 7.17021 44.978C7.39773 44.7717 7.55629 44.6342 7.7028 44.4933C9.01445 43.1887 10.3192 41.8773 11.6343 40.5763C16.4104 35.8531 23.6788 35.9975 28.2877 40.8839C28.5258 41.1062 28.8372 41.234 29.1633 41.2431C32.6104 41.2672 36.0576 41.2998 39.5048 41.2431C41.3611 41.2122 42.8986 41.6917 43.9431 43.3813C44.1482 43.1939 44.3223 43.0375 44.4843 42.8828C46.968 40.4095 49.4327 37.9156 51.9388 35.4647C54.538 32.9192 58.766 33.9573 59.7794 37.3828C60.3224 39.2202 59.8208 40.8203 58.4816 42.1592C56.172 44.4727 53.8572 46.7815 51.5372 49.0858L47.0145 53.5958C46.03 54.609 44.8474 55.4101 43.54 55.9493C42.2326 56.4885 40.8281 56.7545 39.4135 56.7308C34.7822 56.7308 30.1509 56.8012 25.5213 56.6947C23.6409 56.6517 22.2775 57.2997 21.0899 58.9669C21.4778 59.29 21.9517 59.632 22.3533 60.0342C22.9101 60.5842 22.9152 61.1153 22.3671 61.6653C20.9141 63.1245 19.437 64.5631 17.9754 66.0103L17.205 66ZM8.81107 46.2688L19.7662 57.1931C19.7283 57.2138 19.7662 57.1931 19.8007 57.1725C19.9558 57.023 20.1196 56.8803 20.2609 56.7188C21.5794 55.2063 23.2306 54.6064 25.2472 54.6356C30.0268 54.7009 34.808 54.6631 39.5893 54.6528C41.7489 54.6528 43.6742 53.9516 45.2116 52.4391C49.2161 48.5054 53.1878 44.5391 57.1268 40.5402C57.5422 40.1191 57.8008 39.4316 57.8904 38.8317C58.049 37.7798 57.3733 36.7898 56.4012 36.355C55.3533 35.8875 54.2364 36.0869 53.3711 36.9445C50.487 39.8091 47.6143 42.6811 44.7532 45.5606C44.5591 45.7819 44.4245 46.0486 44.3619 46.3358C43.931 48.0906 42.3746 49.4656 40.57 49.4811C35.7026 49.5206 30.8351 49.5017 25.9677 49.4948C25.3007 49.4948 24.8646 49.0738 24.8508 48.4911C24.837 47.9084 25.2852 47.4598 25.985 47.4392C26.1573 47.4392 26.3297 47.4392 26.502 47.4392C31.0454 47.4392 35.5894 47.4392 40.1339 47.4392C41.0302 47.4392 41.7369 47.1298 42.1729 46.3358C42.9348 44.9608 41.9247 43.3211 40.2873 43.3142C36.4747 43.2988 32.6622 43.285 28.8513 43.328C27.9895 43.328 27.4259 43.0702 26.8674 42.417C23.6254 38.6358 17.9582 38.0377 14.1008 41.1967C12.1841 42.7591 10.526 44.6102 8.81107 46.2688ZM2.66301 48.4258L17.6083 63.3222L20.0816 60.8627L5.15188 45.9559L2.66301 48.4258Z" fill="#025A8D"/>
</g>
<defs>
<clipPath id="clip0_35_1346">
<rect width="60" height="66" fill="white"/>
</clipPath>
</defs>
</svg>
