<svg width="117" height="19" viewBox="0 0 117 19" fill="none" xmlns="http://www.w3.org/2000/svg">
<path d="M6.92636 6.04287C6.92636 6.04287 3.09552 6.45564 0.540017 6.7316C0.309682 6.75872 0.106018 6.9085 0.0296436 7.13611C-0.0467306 7.36372 0.0296435 7.60076 0.199364 7.75054C2.09781 9.4358 4.95033 11.9596 4.95033 11.9596C4.9479 11.9596 4.16719 15.6308 3.64833 18.0803C3.60469 18.302 3.68712 18.5367 3.88594 18.677C4.08354 18.8173 4.33812 18.8197 4.53815 18.71C6.77361 17.4741 10.122 15.6155 10.122 15.6155C10.122 15.6155 13.4715 17.4741 15.7033 18.7112C15.907 18.8197 16.1616 18.8173 16.3592 18.677C16.558 18.5367 16.6404 18.302 16.5956 18.0814C16.0767 15.6308 15.2972 11.9596 15.2972 11.9596C15.2972 11.9596 18.1497 9.4358 20.0482 7.75408C20.2179 7.59958 20.2931 7.36254 20.2179 7.13611C20.1427 6.90968 19.9391 6.7599 19.7087 6.73396C17.1532 6.45564 13.3212 6.04287 13.3212 6.04287C13.3212 6.04287 11.7331 2.62518 10.6748 0.346722C10.5754 0.142699 10.3668 0 10.122 0C9.87707 0 9.66735 0.143878 9.57279 0.346722C8.51325 2.62518 6.92636 6.04287 6.92636 6.04287Z" fill="#FBBC05"/>
<path d="M30.9041 6.04287C30.9041 6.04287 27.0733 6.45564 24.5178 6.7316C24.2875 6.75872 24.0838 6.9085 24.0074 7.13611C23.9311 7.36372 24.0074 7.60076 24.1771 7.75054C26.0756 9.4358 28.9281 11.9596 28.9281 11.9596C28.9257 11.9596 28.145 15.6308 27.6261 18.0803C27.5825 18.302 27.6649 18.5367 27.8637 18.677C28.0613 18.8173 28.3159 18.8197 28.5159 18.71C30.7514 17.4741 34.0997 15.6155 34.0997 15.6155C34.0997 15.6155 37.4493 17.4741 39.6811 18.7112C39.8848 18.8197 40.1394 18.8173 40.337 18.677C40.5358 18.5367 40.6182 18.302 40.5734 18.0814C40.0545 15.6308 39.275 11.9596 39.275 11.9596C39.275 11.9596 42.1275 9.4358 44.026 7.75408C44.1957 7.59958 44.2709 7.36254 44.1957 7.13611C44.1205 6.90968 43.9169 6.7599 43.6865 6.73396C41.131 6.45564 37.299 6.04287 37.299 6.04287C37.299 6.04287 35.7109 2.62518 34.6525 0.346722C34.5531 0.142699 34.3446 0 34.0997 0C33.8549 0 33.6451 0.143878 33.5506 0.346722C32.491 2.62518 30.9041 6.04287 30.9041 6.04287Z" fill="#FBBC05"/>
<path d="M54.882 6.04287C54.882 6.04287 51.0512 6.45564 48.4957 6.7316C48.2654 6.75872 48.0617 6.9085 47.9853 7.13611C47.909 7.36372 47.9853 7.60076 48.1551 7.75054C50.0535 9.4358 52.906 11.9596 52.906 11.9596C52.9036 11.9596 52.1229 15.6308 51.604 18.0803C51.5604 18.302 51.6428 18.5367 51.8416 18.677C52.0392 18.8173 52.2938 18.8197 52.4938 18.71C54.7293 17.4741 58.0776 15.6155 58.0776 15.6155C58.0776 15.6155 61.4272 17.4741 63.659 18.7112C63.8627 18.8197 64.1173 18.8173 64.3149 18.677C64.5137 18.5367 64.5961 18.302 64.5513 18.0814C64.0324 15.6308 63.2529 11.9596 63.2529 11.9596C63.2529 11.9596 66.1054 9.4358 68.0039 7.75408C68.1736 7.59958 68.2488 7.36254 68.1736 7.13611C68.0984 6.90968 67.8948 6.7599 67.6644 6.73396C65.1089 6.45564 61.2769 6.04287 61.2769 6.04287C61.2769 6.04287 59.6888 2.62518 58.6305 0.346722C58.531 0.142699 58.3225 0 58.0776 0C57.8328 0 57.623 0.143878 57.5285 0.346722C56.4689 2.62518 54.882 6.04287 54.882 6.04287Z" fill="#FBBC05"/>
<path d="M78.86 6.04287C78.86 6.04287 75.0291 6.45564 72.4736 6.7316C72.2433 6.75872 72.0396 6.9085 71.9632 7.13611C71.8869 7.36372 71.9632 7.60076 72.133 7.75054C74.0314 9.4358 76.8839 11.9596 76.8839 11.9596C76.8815 11.9596 76.1008 15.6308 75.5819 18.0803C75.5383 18.302 75.6207 18.5367 75.8195 18.677C76.0171 18.8173 76.2717 18.8197 76.4717 18.71C78.7072 17.4741 82.0556 15.6155 82.0556 15.6155C82.0556 15.6155 85.4051 17.4741 87.6369 18.7112C87.8406 18.8197 88.0952 18.8173 88.2928 18.677C88.4916 18.5367 88.574 18.302 88.5292 18.0814C88.0103 15.6308 87.2308 11.9596 87.2308 11.9596C87.2308 11.9596 90.0833 9.4358 91.9818 7.75408C92.1515 7.59958 92.2267 7.36254 92.1515 7.13611C92.0763 6.90968 91.8727 6.7599 91.6423 6.73396C89.0868 6.45564 85.2548 6.04287 85.2548 6.04287C85.2548 6.04287 83.6667 2.62518 82.6084 0.346722C82.5089 0.142699 82.3004 0 82.0556 0C81.8107 0 81.6009 0.143878 81.5064 0.346722C80.4468 2.62518 78.86 6.04287 78.86 6.04287Z" fill="#FBBC05"/>
<path d="M102.838 6.04287C102.838 6.04287 99.0069 6.45564 96.4514 6.7316C96.2211 6.75872 96.0174 6.9085 95.941 7.13611C95.8646 7.36372 95.941 7.60076 96.1107 7.75054C98.0092 9.4358 100.862 11.9596 100.862 11.9596C100.859 11.9596 100.079 15.6308 99.5597 18.0803C99.5161 18.302 99.5985 18.5367 99.7973 18.677C99.9949 18.8173 100.249 18.8197 100.45 18.71C102.685 17.4741 106.033 15.6155 106.033 15.6155C106.033 15.6155 109.383 17.4741 111.615 18.7112C111.818 18.8197 112.073 18.8173 112.271 18.677C112.469 18.5367 112.552 18.302 112.507 18.0814C111.988 15.6308 111.209 11.9596 111.209 11.9596C111.209 11.9596 114.061 9.4358 115.96 7.75408C116.129 7.59958 116.204 7.36254 116.129 7.13611C116.054 6.90968 115.85 6.7599 115.62 6.73396C113.065 6.45564 109.233 6.04287 109.233 6.04287C109.233 6.04287 107.644 2.62518 106.586 0.346722C106.487 0.142699 106.278 0 106.033 0C105.788 0 105.579 0.143878 105.484 0.346722C104.425 2.62518 102.838 6.04287 102.838 6.04287Z" fill="#FBBC05"/>
</svg>
